<?xml version="1.0" standalone="no"?>
<!DOCTYPE svg PUBLIC "-//W3C//DTD SVG 1.1//EN" "http://www.w3.org/Graphics/SVG/1.1/DTD/svg11.dtd" >
<svg xmlns="http://www.w3.org/2000/svg">
<metadata>Generated by IcoMoon</metadata>
<defs>
<font id="Toyota-icon-06" horiz-adv-x="1024">
<font-face units-per-em="1024" ascent="960" descent="-64" />
<missing-glyph horiz-adv-x="1024" />
<glyph unicode="&#x20;" d="" horiz-adv-x="512" />
<glyph unicode="&#xe000;" d="M778.011 370.519c-13.648 13.447-43.913 20.567-89.973 21.173-31.177 0.343-68.702-2.402-108.169-7.929-17.673 10.199-35.893 21.294-50.187 34.658-38.462 35.915-70.567 85.771-90.576 140.594 1.305 5.12 2.414 9.621 3.447 14.213 0 0 21.666 123.061 15.929 164.665-0.791 5.705-1.273 7.362-2.807 11.797l-1.881 4.834c-5.895 13.593-17.447 27.993-35.566 27.207l-10.917 0.345c-20.201 0-36.665-10.331-40.985-25.774-13.138-48.434 0.418-120.891 24.983-214.738l-6.288-15.287c-17.589-42.875-39.63-86.059-59.079-124.158l-2.528-4.953c-20.459-40.039-39.024-74.025-55.854-102.823l-17.376-9.189c-1.264-0.667-31.045-16.418-38.027-20.645-59.257-35.383-98.521-75.541-105.035-107.417-2.073-10.169-0.53-23.186 10.014-29.214l16.807-8.457c7.289-3.653 14.978-5.502 22.855-5.502 42.203 0 91.2 52.571 158.697 170.366 77.929 25.367 166.654 46.457 244.414 58.089 59.257-33.369 132.142-56.546 178.142-56.546 8.167 0 15.211 0.777 20.933 2.295 8.823 2.336 16.258 7.367 20.793 14.192 8.926 13.433 10.734 31.931 8.311 50.875-0.727 5.632-5.216 12.583-10.075 17.328zM147.646 145.952c7.696 21.042 38.16 62.645 83.205 99.557 2.832 2.295 9.808 8.832 16.194 14.903-47.102-75.125-78.647-105.067-99.399-114.459zM414.434 760.313c13.566 0 21.285-34.194 21.925-66.254s-6.857-54.56-16.158-71.209c-7.703 24.649-11.426 63.499-11.426 88.903 0 0.002-0.567 48.56 5.659 48.56zM334.853 322.505c9.449 16.917 19.282 34.757 29.33 53.678 24.491 46.315 39.959 82.555 51.479 112.345 22.91-41.685 51.445-77.12 84.985-105.513 4.185-3.543 8.617-7.102 13.273-10.649-68.21-13.495-127.163-29.909-179.067-49.861zM764.903 326.347c-4.153-2.599-16.055-4.101-23.707-4.101-24.706 0-55.271 11.294-98.126 29.666 16.469 1.218 31.561 1.838 45.099 1.838 24.782 0 32.119 0.107 56.35-6.071s24.539-18.734 20.384-21.333zM839.433 760.569l-142.864 142.862c-31.113 31.113-92.569 56.569-136.569 56.569h-480c-44 0-80-36-80-80v-864c0-44 36-80 80-80h736c44 0 80 36 80 80v608c0 44-25.456 105.458-56.567 136.569zM794.178 715.314c3.129-3.129 6.249-6.974 9.28-11.314h-163.458v163.456c4.341-3.031 8.183-6.151 11.314-9.28l142.864-142.862zM832 16c0-8.672-7.328-16-16-16h-736c-8.672 0-16 7.328-16 16v864c0 8.672 7.328 16 16 16h480c4.832 0 10.254-0.61 16-1.703v-254.297h254.295c1.095-5.746 1.703-11.166 1.703-16l0.002-608z" />
<glyph unicode="&#xe001;" d="M768 960h-512c-35.328 0-64-28.672-64-64v-896c0-35.328 28.672-64 64-64h512c35.328 0 64 28.672 64 64v896c0 35.328-28.672 64-64 64zM512 0c-106.016 0-192 85.984-192 192s85.984 192 192 192 192-85.984 192-192-85.984-192-192-192zM768 480c0-17.696-14.304-32-32-32h-448c-17.664 0-32 14.304-32 32v384c0 17.696 14.336 32 32 32h448c17.696 0 32-14.304 32-32v-384zM512 256c-35.328 0-64-28.672-64-64s28.672-64 64-64 64 28.672 64 64-28.672 64-64 64z" />
<glyph unicode="&#xe003;" d="M512.032 576c70.496 0 128-57.44 128-128s-57.504-128-128-128-128 57.44-128 128 57.504 128 128 128zM512.032 704c-141.376 0-256-114.624-256-256s114.624-256 256-256c141.376 0 255.968 114.624 255.968 256s-114.592 256-255.968 256v0zM448 896c0-35.346 28.654-64 64-64s64 28.654 64 64c0 35.346-28.654 64-64 64s-64-28.654-64-64zM128 768c0-35.346 28.654-64 64-64s64 28.654 64 64c0 35.346-28.654 64-64 64s-64-28.654-64-64zM64 512c35.36 0 64-28.64 64-64 0-35.424-28.64-64-64-64s-64 28.576-64 64c0 35.36 28.64 64 64 64zM128 128c0-35.346 28.654-64 64-64s64 28.654 64 64c0 35.346-28.654 64-64 64s-64-28.654-64-64zM448 0c0 35.488 28.64 64 64 64 35.456 0 64-28.512 64-64 0-35.264-28.544-64-64-64-35.36 0-64 28.736-64 64zM768 128c0-35.346 28.654-64 64-64s64 28.654 64 64c0 35.346-28.654 64-64 64s-64-28.654-64-64zM960 384c-35.328 0-64 28.672-64 64 0 35.424 28.672 64 64 64s64-28.576 64-64c0-35.328-28.672-64-64-64zM768 768c0-35.346 28.654-64 64-64s64 28.654 64 64c0 35.346-28.654 64-64 64s-64-28.654-64-64z" horiz-adv-x="1022" />
<glyph unicode="&#xe004;" d="M767.936 768c-12 0-23.456-1.952-35.296-3.552-44.448 78.88-127.008 131.552-220.64 131.552-95.584 0-178.080-53.312-222.080-131.2-11.296 1.504-22.56 3.2-33.92 3.2-141.12 0-256-114.816-256-256s114.88-256 256-256h511.936c141.248 0 256 114.816 256 256s-114.752 256-256 256zM767.936 384h-511.936c-70.624 0-128 57.44-128 128 0 70.176 62.112 124.32 128.128 126.24 0.288-30.176 5.504-59.808 16-87.808l119.872 44.864c-5.376 14.208-8 29.28-8 44.704 0 70.56 57.376 128 128 128 41.376 0 78.88-20.512 102.368-52.448-61.696-46.752-102.368-120.192-102.368-203.552h128c0 70.56 57.44 128 127.936 128 70.752 0 128-57.44 128-128s-57.248-128-128-128zM104.992 17.984c-24-24-63.008-24-87.008 0s-24 63.008 0 87.008 174.016 87.008 174.016 87.008-63.008-150.016-87.008-174.016zM361.12 17.984c-24-24-62.88-24-87.008 0-24 24-24 63.008 0 87.008 24.128 24 174.016 87.008 174.016 87.008s-62.88-150.016-87.008-174.016zM616.96 17.984c-24-24-63.008-24-87.008 0s-24 63.008 0 87.008 173.984 87.008 173.984 87.008-62.976-150.016-86.976-174.016z" horiz-adv-x="1022" />
<glyph unicode="&#xe005;" d="M1029.038-67.675h-833.234c-55.863 0-101.31 45.449-101.31 101.303l-0.007 833.25c0 55.861 45.449 101.303 101.31 101.303h833.234c55.863 0 101.31-45.449 101.31-101.303v-833.243c0.002-55.861-45.447-101.31-101.303-101.31zM195.799 901.776c-19.243 0-34.903-15.657-34.903-34.896v-833.243c0-19.239 15.659-34.896 34.903-34.896h833.234c19.243 0 34.903 15.657 34.903 34.896l-0.002 833.241c0 19.239-15.659 34.896-34.903 34.896l-833.232 0.002z" horiz-adv-x="1447" />
<glyph unicode="&#xe006;" d="M985.175 622.034c0-12.661-4.446-22.773-13.287-30.361l-407.943-409.842c-8.864-7.591-19.627-11.381-32.258-11.381-12.661 0-23.426 3.792-32.258 11.381l-237.179 237.177c-8.864 8.837-13.287 19.595-13.287 32.258 0 12.631 4.416 23.392 13.287 32.258l64.514 64.514c8.837 8.837 19.595 13.287 32.258 13.287 12.633 0 23.392-4.446 32.258-13.287l140.414-140.414 311.182 313.077c8.837 7.591 19.595 11.381 32.258 11.381 12.633 0 23.394-3.792 32.258-11.381l64.51-64.514c8.825-10.137 13.273-21.52 13.273-34.153zM1033.691-66.665h-833.234c-55.863 0-101.31 45.449-101.31 101.303l-0.007 833.25c0 55.861 45.449 101.303 101.31 101.303h833.234c55.863 0 101.31-45.449 101.31-101.303v-833.243c0.005-55.863-45.445-101.31-101.303-101.31zM200.453 902.784c-19.243 0-34.903-15.657-34.903-34.896v-833.243c0-19.239 15.659-34.896 34.903-34.896h833.234c19.243 0 34.903 15.657 34.903 34.896v833.243c0 19.239-15.659 34.896-34.903 34.896h-833.234z" horiz-adv-x="1447" />
<glyph unicode="&#xe007;" d="M1238.201 955.017l-171.71-49.184 45.234-44.119-553.406-567.598-7.749 223.136c1.71 16.613 8.469 34.069 20.546 47.001 49.931 51.209 79.545 81.641 90.459 92.853 28.779-13.296 64.091-7.954 87.71 16.267 29.904 30.654 29.568 79.561-0.777 109.147-30.368 29.589-79.234 28.677-109.125-1.986-23.637-24.229-28.073-59.643-14.064-88.085l-89.486-91.735c-24.213-24.843-36.139-64.039-36.457-96.055-0.032 0.933-0.091 1.89-0.021-0.032 0.041-0.725 8.215-236.704 8.215-236.704-1.723-16.635-8.482-34.039-20.546-46.967l-62.594-64.183c-50.274 32.357-118.4 25.739-162.215-19.209-49.952-51.225-49.358-132.763 1.312-182.187 50.672-49.399 132.231-47.954 182.181 3.275 43.824 44.967 48.711 113.23 15.019 162.731l61.499 63.067c0.178 0.185 0.309 0.309 0.482 0.482l136.027 139.525c12.622 12.338 29.84 19.554 46.407 21.671 0 0 236.105-2.21 236.875-2.267 1.867 0.014 0.898 0.041 0 0 31.984 1.189 70.887 14.094 95.122 38.965l86.158 88.395 36.839-35.918 108.286 111.061-109.867 107.125-108.299-111.072 36.782-35.867c0 0-22.738-23.205-87.289-89.406-12.61-12.377-29.879-19.625-46.482-21.712l-223.31 2.073 418.082 428.789 45.344-44.201 44.816 172.923z" horiz-adv-x="1447" />
<glyph unicode="&#xe008;" d="M970.37 269.653c-65.001 57.934-129.365 116.59-196.51 177.129 69.287 62.283 135.655 122.167 202.215 181.728 41.417 37.003 41.863 65.522 1.232 102.014-78.683 70.642-157.429 141.291-235.975 212.126-18.473 16.658-37.783 29.614-63.906 18.473-26.571-11.339-33.765-32.926-33.577-60.343 0.713-101.497 0.327-203.056 0.197-304.549 0-8.871-1.301-17.758-2.336-30.656-55.931 50.222-108.037 97.090-160.149 143.888-30.523 27.417-60.469 29.486-82.631 5.835-22.942-24.43-17.826-55.666 13.801-84.062 28.91-25.927 58.005-51.655 86.846-77.707 38.821-35.127 77.445-70.455 118.286-107.586-9.333-7.961-15.104-12.77-20.677-17.753-63.385-57.042-127.097-113.673-189.961-171.358-35.319-32.345-28.128-82.571 14.715-91.376 17.504-3.57 42.713 5.71 57.291 17.753 54.576 45.241 106.219 94.043 164.942 146.802 0-117.179 0.327-226.194-0.327-335.271-0.126-26.837 4.93-49.25 31.561-61.57 27.479-12.629 47.246 0.713 66.624 18.279 75.963 68.827 152.043 137.593 228.594 205.838 49.383 43.989 49.383 68.098-0.256 112.366zM749.561 795.006c43.819-39.534 83.486-75.374 127.097-114.718-41.989-38.235-82.571-75.115-127.097-115.623v230.341zM750.135 98.745v229.042c43.23-39.081 83.41-75.312 126.775-114.526-43.682-39.47-83.349-75.305-126.775-114.517z" horiz-adv-x="1447" />
<glyph unicode="&#xe009;" d="M199.602 553.666c10.245-1.353 20.654-1.586 29.803-2.24-11.854-44.619-31.038-86.903-33.067-129.938-4.011-82.791-5.319-165.634-5.81-248.576h1089.618c0.187 40.135 0 80.233-0.983 120.322-1.31 53.017-4.437 106.313-12 158.777-4.848 33.509-19.317 65.623-29.87 99.55 8.126 0.512 14.937 1.074 21.753 1.447 40.882 2.377 68.834 29.966 67.904 66.921-0.983 36.965-29.63 62.823-71.127 63.662-17.778 0.375-35.845-1.867-53.202 0.882-9.106 1.447-21.145 9.289-24.601 17.408-17.177 39.765-31.273 80.887-47.694 120.971-21.659 53.019-59.84 87.979-117.003 98.009-186.37 32.766-372.953 32.766-559.266-0.281-54.72-9.753-91.943-43.36-113.922-93.623-11.015-25.253-20-51.431-29.966-77.104-25.109-64.823-25.131-64.823-95.749-66.229-4.923-0.091-9.922 0.048-14.773-0.656-33.344-4.526-57.705-31.877-57.733-64.59-0.016-32.697 24.318-60.229 57.687-64.713zM1184.379 366.747c-1.589-34.677-31.653-62.914-66.094-62.123-35.845 0.75-65.289 32.11-63.611 67.584 1.637 34.722 31.6 62.914 66.139 62.171 35.797-0.754 65.291-32.114 63.566-67.632zM357.541 614.898c18.603 50.873 38.229 101.28 56.057 152.382 8.798 25.25 24.571 34.955 50.987 34.859 180.411-0.606 360.798-0.562 541.23 0 25.289 0.094 40.503-9.851 48.958-33.602 18.807-52.834 38.926-105.198 58.011-157.941 9.803-27.019 5.273-33.413-24.229-33.463-118.313-0.281-236.576-0.139-354.91-0.139-116.331 0-232.683-0.046-349.013 0.094-35.143 0.009-38.969 5.419-27.093 37.81zM348.183 434.375c35.682 0.743 66.249-29.499 66.066-65.202-0.187-34.672-29.031-63.89-63.753-64.546-35.703-0.743-66.277 29.403-66.041 65.157 0.165 34.722 29.033 63.941 63.728 64.592zM190.341 136.706c-0.091-29.262-0.046-58.574 0-87.886 0.069-43.545 40.135-76.823 82.864-76.306 42.704 0.471 78.551 34.167 81.742 78.039 1.191 16.43 0.187 32.994 0.187 50.779 253.641 0 503.934 0 758.299 0 0-14.185-0.094-25.856 0.046-37.575 0.699-53.488 35.797-91.712 83.774-91.243s82.139 38.507 82.334 92.688c0.089 23.803 0.229 47.703 0.368 71.504h-1089.614z" horiz-adv-x="1447" />
<glyph unicode="&#xe00a;" d="M1392.679 453.241c-44.933 73.499-135.79 119.424-263.211 166.574 0 0-266.423 215.086-351.486 246.208-85.038 31.145-377.474 2.914-405.406-28.238l-323.536-274.434-26.018-261.269 44.933-102.398c-1.611-9.653-2.581-19.582-2.581-29.845 0-98.569 79.931-178.503 178.475-178.503 78.021 0 144.441 50.034 168.217 119.705h586.761c24.075-69.666 90.53-119.705 168.185-119.705 79.602 0 146.663 52.030 169.797 123.922 24.407-1.664 77.049-2.885 96.962 9.931 0.014-0.005 9.609 240.457-41.093 328.050zM751.993 773.913c106.279-20.224 236.578-166.914 236.578-166.914l-455.294 0.005v162.651c71.442 8.473 161.806 15.122 218.715 4.258zM424.254 753.696c0 0 15.317 2.793 39.797 6.537v-153.23h-199.639l159.842 146.693zM243.863 71.879c-53.89 0-97.575 44.041-97.575 97.959 0 53.589 43.685 97.518 97.575 97.518 53.947 0 97.605-43.929 97.605-97.518-0.002-53.918-43.664-97.959-97.605-97.959zM1167.026 71.879c-53.589 0-97.57 44.041-97.57 97.959 0 53.589 43.982 97.518 97.57 97.518 53.92 0 97.906-43.929 97.906-97.518 0-53.918-43.991-97.959-97.906-97.959z" horiz-adv-x="1447" />
<glyph unicode="&#xe00b;" d="M370.197 444.825l43.735-64.594h81.438l37.582 64.594-39.589 68.793h-81.602l-41.563-68.793zM403.733-74.67v146.053l-81.602-45.886-41.575 23.799v51.456l121.017 68.782v96l-87.799-56.432v101.703l-83.927-48.375v-137.881l-45.906-28.437-38.8 25.662v92.395l-127.385-71.854-54.384 22.896v58.286l133.694 73.083-83.63 42.034v53.33l47.451 25.989 119.952-70.635 83.303 48.078-2.018 1.536-85.166 48.846 82.697 51.312-82.994 48.066-119.931-70.471-44.974 22.405v53.177l81.161 45.598-129.545 70.329v58.277l49.767 25.65 127.673-73.719v93.973l38.471 25.968 47.166-27.207-0.309-140.665 85.769-48.987-0.297 99.378 89.968-48.384v95.991l-121.033 68.935v51.006l41.575 24.105 81.602-45.906-0.011 145.765 46.695 30.608 47.125-30.608v-145.755l84.562 46.839 42.537-28.139v-45.906l-125.237-70.944v-95.991l85.648 52.245v-104.489l88.238 48.087v150.386l42.526 19.783 44.656-19.783v-96.153l131.369 70.953 45.915-27.975v-54.405l-128.297-72.96 80.219-44.965v-51.947l-41.561-23.031-123.186 72.807-85.166-54.098 82.37-51.333-84.859-48.834 87.655-45.895 123.186 68.779 39.568-27.966v-49.634l-77.282-43.417 123.045-73.104v-57.374l-52.091-23.799-120.882 68.814v-91.024l-43.438-24.279-42.496 24.279-0.011 138.16-89.488 50.994v-96l-85.648 52.265v-96l121.038-68.782v-54.416l-41.758-20.869-81.143 45.895v-146.064l-47.113-30.267-46.674 30.29z" horiz-adv-x="901" />
<glyph unicode="&#xe00c;" d="M737.429 495.369c-9.273 8.997-20.693 13.477-34.288 13.477-16.245 0-29.966-5.333-41.099-16.025-11.134-10.661-17.378-24.123-18.706-40.377h108.535c-0.375 19.646-5.205 33.968-14.441 42.926zM737.429 495.369c-9.273 8.997-20.693 13.477-34.288 13.477-16.245 0-29.966-5.333-41.099-16.025-11.134-10.661-17.378-24.123-18.706-40.377h108.535c-0.375 19.646-5.205 33.968-14.441 42.926zM9.109 818.347v-691.877h1421.33l0.007 691.877h-1421.337zM491.41 369.984c0-9.657-0.473-19.806-1.419-30.471-0.978-10.69-2.208-18.672-3.753-23.941-3.093-10.405-7.099-18.706-12.112-24.951-4.981-6.245-10.222-10.907-15.71-14.034-5.456-3.093-10.944-5.045-16.437-5.806-5.456-0.757-10.405-1.134-14.825-1.134-16.245 0-30.567 4.921-42.935 14.734-12.398 9.842-25.579 26.745-39.559 50.754l-122.482 203.175v-265.822h-85.296l0.009 418.581h89.554l179.673-312.315v312.315h85.296l-0.005-321.086zM664.023 351.401c13.787-11.611 33.058-17.415 57.817-17.415 14.734 0 29.847 1.739 45.328 5.237 15.486 3.499 32.491 8.555 51.006 15.177l22.683-65.202c-15.486-6.594-34.005-12.713-55.55-18.261-21.541-5.584-45.237-8.361-71.134-8.361-29.845 0-55.168 3.874-75.927 11.611-20.757 7.758-37.632 18.606-50.658 32.585-13.029 13.977-22.427 30.503-28.231 49.616-5.806 19.051-8.709 40.027-8.709 62.896 0 20.594 3.285 40.437 9.842 59.52 6.562 19.083 16.501 35.991 29.813 50.727 13.307 14.734 29.431 26.434 48.393 35.141 18.958 8.677 41.006 13.029 66.144 13.029 23.595 0 43.973-3.657 61.070-11.038 17.095-7.381 31.221-17.915 42.363-31.605 11.129-13.694 19.461-30.313 24.951-49.872 5.454-19.559 8.206-41.323 8.206-65.326l-24.382-23.25h-174.848c0.747-18.526 8.037-33.563 21.822-45.209zM1292.599 347.87c-1.515-11.515-4.576-22.521-9.211-33.026-4.638-10.469-11.106-19.584-19.403-27.351-8.331-7.728-18.862-13.849-31.605-18.261-12.743-4.448-28.107-6.658-46.055-6.658-14.734 0-29.271 1.737-43.621 5.237-14.352 3.499-27.506 8.553-39.429 15.175-11.506-6.245-24.507-11.198-38.955-14.889s-29.054-5.52-43.787-5.52c-35.52 0-61.442 7.822-77.785 23.502-16.343 15.678-26.023 36.277-29.054 61.797l-25.486 211.975 85.863 9.938 23.246-210.871c0.345-5.833 1.829-10.469 4.386-13.879 2.558-3.408 5.52-5.986 8.923-7.792 3.408-1.794 7.033-2.967 10.907-3.531 3.849-0.565 7.602-0.85 11.198-0.85 5.077 0 10.121 0.565 15.143 1.707 5.015 1.134 9.403 2.901 13.184 5.362v227.874h85.296v-227.874c3.408-2.245 7.758-4.009 13.063-5.237 5.269-1.232 10.373-1.829 15.298-1.829 6.215 0 13.118 1.449 20.693 4.384 7.545 2.937 12.080 9.591 13.598 19.968l23.817 212.571 85.296-9.938-25.52-211.984zM703.141 508.839c-16.245 0-29.966-5.333-41.099-16.025-11.134-10.661-17.378-24.123-18.706-40.377h108.535c-0.375 19.65-5.2 33.973-14.443 42.926-9.278 9.003-20.693 13.477-34.286 13.477z" horiz-adv-x="1447" />
<glyph unicode="&#xe00d;" d="M1102.608 662.096v-78.51h-856.208v78.51h119.854v225.12h0.034c0.821 40.821 34.117 73.641 75.109 73.641 41.024 0 74.322-32.809 75.141-73.641h0.944v-225.12h304.882v225.12h0.523c0.786 40.821 34.117 73.641 75.109 73.641 40.99 0 74.322-32.809 75.109-73.641h0.489l-0.002-225.12h129.017zM1040.622 508.443v-150.094h-0.418c-20.613-141.474-141.753-254.782-297.36-280.821v-128.265h-14.885v-0.56h-88.128v0.56h-26.331v127.113c-159.131 23.643-283.753 138.263-304.711 281.97h-0.418v150.094h732.251zM246.398 686.631h856.21v-53.977h-856.21z" horiz-adv-x="1447" />
<glyph unicode="&#xe00e;" d="M545.406 447.177c0-113.931-92.341-206.272-206.258-206.272-113.915 0-206.258 92.338-206.258 206.272 0 113.911 92.341 206.265 206.258 206.265 113.92 0 206.258-92.354 206.258-206.265zM1093.895 447.177c0-113.931-92.343-206.272-206.265-206.272s-206.265 92.338-206.265 206.272c0 113.911 92.343 206.265 206.265 206.265 113.92 0 206.265-92.354 206.265-206.265z" horiz-adv-x="1447" />
<glyph unicode="&#xe00f;" d="M1099.559 865.225c-13.943 14.069-29.899 20.087-47.879 18.151l-58.427 1.721c-17.973 0.059-33.504-6.393-46.487-19.298-12.414-12.299-19.237-27.433-20.789-45.147h-0.375v-734.517h0.281c-1.474-17.23 4.425-32.693 17.902-46.254 13.943-14.055 29.899-20.087 47.879-18.142l58.427-1.721c17.973-0.059 33.504 6.393 46.487 19.298 12.816 12.702 19.778 28.359 21.015 46.83h0.149l0.011 734.503h-0.19c0.951 16.567-4.949 31.447-18.005 44.576zM905.045 478.359l-346.233 346.681c-11.264 14.128-26.759 21.289-46.539 21.346-19.813 0.080-35.367-6.937-46.679-21.015l-42.528-40.096c-12.75-12.658-19.163-28.213-19.223-46.539-0.080-18.375 6.215-34.672 18.88-48.786l160.779-160.665-492.489-0.281c-17.23 1.474-32.693-4.425-46.254-17.902-14.069-13.943-20.087-29.899-18.151-47.879l-1.712-58.427c-0.071-17.961 6.393-33.495 19.298-46.48 12.702-12.816 28.345-19.787 46.83-21.015v-0.153h493.074l-163.289-162.098c-12.75-12.645-19.163-28.219-19.243-46.539-0.071-18.375 6.238-34.647 18.896-48.807l42.21-40.43c12.681-12.75 28.19-19.163 46.56-19.237 18.32-0.059 33.941 6.238 46.69 18.914l348.773 344.089c12.77 14.043 19.179 30.286 19.259 48.667 0.055 18.283-6.245 33.872-18.91 46.651z" horiz-adv-x="1447" />
<glyph unicode="&#xe600;" d="M877.714 438.857q0-89.143-34.857-170.286t-93.714-140-140-93.714-170.286-34.857q-98.286 0-186.857 41.429t-150.857 116.857q-4 5.714-3.714 12.857t4.857 11.714l78.286 78.857q5.714 5.143 14.286 5.143 9.143-1.143 13.143-6.857 41.714-54.286 102.286-84t128.571-29.714q59.429 0 113.429 23.143t93.429 62.571 62.571 93.429 23.143 113.429-23.143 113.429-62.571 93.429-93.429 62.571-113.429 23.143q-56 0-107.429-20.286t-91.429-58l78.286-78.857q17.714-17.143 8-39.429-9.714-22.857-33.714-22.857h-256q-14.857 0-25.714 10.857t-10.857 25.714v256q0 24 22.857 33.714 22.286 9.714 39.429-8l74.286-73.714q61.143 57.714 139.714 89.429t162.571 31.714q89.143 0 170.286-34.857t140-93.714 93.714-140 34.857-170.286z" horiz-adv-x="878" />
<glyph unicode="&#xe601;" d="M863.429 347.428q0-2.857-0.571-4-36.571-153.143-153.143-248.286t-273.143-95.143q-83.429 0-161.429 31.429t-139.143 89.714l-73.714-73.714q-10.857-10.857-25.714-10.857t-25.714 10.857-10.857 25.714v256q0 14.857 10.857 25.714t25.714 10.857h256q14.857 0 25.714-10.857t10.857-25.714-10.857-25.714l-78.286-78.286q40.571-37.714 92-58.286t106.857-20.571q76.571 0 142.857 37.143t106.286 102.286q6.286 9.714 30.286 66.857 4.571 13.143 17.143 13.143h109.714q7.429 0 12.857-5.429t5.429-12.857zM877.714 804.571v-256q0-14.857-10.857-25.714t-25.714-10.857h-256q-14.857 0-25.714 10.857t-10.857 25.714 10.857 25.714l78.857 78.857q-84.571 78.286-199.429 78.286-76.571 0-142.857-37.143t-106.286-102.286q-6.286-9.714-30.286-66.857-4.571-13.143-17.143-13.143h-113.714q-7.429 0-12.857 5.429t-5.429 12.857v4q37.143 153.143 154.286 248.286t274.286 95.143q83.429 0 162.286-31.714t140-89.429l74.286 73.714q10.857 10.857 25.714 10.857t25.714-10.857 10.857-25.714z" horiz-adv-x="878" />
<glyph unicode="&#xe602;" d="M73.143 0h164.571v164.571h-164.571v-164.571zM274.286 0h182.857v164.571h-182.857v-164.571zM73.143 201.143h164.571v182.857h-164.571v-182.857zM274.286 201.143h182.857v182.857h-182.857v-182.857zM73.143 420.571h164.571v164.571h-164.571v-164.571zM493.714 0h182.857v164.571h-182.857v-164.571zM274.286 420.571h182.857v164.571h-182.857v-164.571zM713.143 0h164.571v164.571h-164.571v-164.571zM493.714 201.143h182.857v182.857h-182.857v-182.857zM292.571 694.857v164.571q0 7.429-5.429 12.857t-12.857 5.429h-36.571q-7.429 0-12.857-5.429t-5.429-12.857v-164.571q0-7.429 5.429-12.857t12.857-5.429h36.571q7.429 0 12.857 5.429t5.429 12.857zM713.143 201.143h164.571v182.857h-164.571v-182.857zM493.714 420.571h182.857v164.571h-182.857v-164.571zM713.143 420.571h164.571v164.571h-164.571v-164.571zM731.429 694.857v164.571q0 7.429-5.429 12.857t-12.857 5.429h-36.571q-7.429 0-12.857-5.429t-5.429-12.857v-164.571q0-7.429 5.429-12.857t12.857-5.429h36.571q7.429 0 12.857 5.429t5.429 12.857zM950.857 731.428v-731.429q0-29.714-21.714-51.429t-51.429-21.714h-804.571q-29.714 0-51.429 21.714t-21.714 51.429v731.429q0 29.714 21.714 51.429t51.429 21.714h73.143v54.857q0 37.714 26.857 64.571t64.571 26.857h36.571q37.714 0 64.571-26.857t26.857-64.571v-54.857h219.429v54.857q0 37.714 26.857 64.571t64.571 26.857h36.571q37.714 0 64.571-26.857t26.857-64.571v-54.857h73.143q29.714 0 51.429-21.714t21.714-51.429z" horiz-adv-x="951" />
<glyph unicode="&#xe603;" d="M1024 369.556l-512 397.426-512-397.428v162.038l512 397.426 512-397.428zM896 384v-384h-256v256h-256v-256h-256v384l384 288z" />
<glyph unicode="&#xe604;" d="M1023.825 446.819c0-140.563-49.945-260.833-149.922-360.81-100.065-99.977-220.597-150.009-362.034-150.009s-262.057 50.032-362.034 150.009-149.834 220.247-149.834 360.81c0 140.563 49.945 261.27 149.922 361.947 99.89 100.852 220.597 151.234 362.034 151.234s261.97-50.382 362.034-151.234c99.89-100.677 149.834-221.384 149.834-361.947zM850.549 447.956c0 92.892-33.238 172.227-99.627 237.828-66.476 65.602-146.073 98.403-238.965 98.403s-172.227-32.801-237.828-98.403-98.403-144.849-98.403-237.828 32.801-172.489 98.403-238.965 144.849-99.54 237.828-99.54 172.576 33.151 238.965 99.627c66.389 66.389 99.627 145.986 99.627 238.878zM351.451 449.181c0 45.309 15.657 83.883 46.883 115.984 31.139 32.014 69.45 48.020 114.759 48.020s83.533-16.094 114.759-48.020c31.226-32.101 46.883-70.675 46.883-115.984 0-1.574 0-3.149 0-4.723 0-45.396-15.657-83.62-46.796-114.847-31.314-31.226-69.538-46.796-114.847-46.796-45.396 0-83.62 15.569-114.759 46.796-31.314 31.226-46.883 69.538-46.883 114.847 0 1.574 0 2.712 0 3.499 0 0.875 0 1.225 0 1.225z" />
<glyph unicode="&#xe605;" d="M873.903 86.009c-100.065-99.977-220.597-150.009-362.034-150.009s-262.057 50.032-362.034 150.009-149.834 220.247-149.834 360.81c0 140.563 49.945 261.27 149.922 361.947 99.89 100.852 220.597 151.234 362.034 151.234s261.97-50.382 362.034-151.234c99.977-100.677 149.922-221.384 149.922-362.034-0.087-140.475-50.032-260.745-150.009-360.722zM750.922 685.785c-66.476 65.602-146.073 98.403-238.965 98.403s-172.227-32.801-237.828-98.403-98.403-144.849-98.403-237.828 32.801-172.489 98.403-238.965 144.849-99.54 237.828-99.54 172.576 33.151 238.965 99.627c66.389 66.476 99.627 145.986 99.627 238.965s-33.238 172.139-99.627 237.741z" />
<glyph unicode="&#xe606;" d="M849.502 278.126h136.798v-210.085c0-36.115-12.596-67.298-37.701-93.107-25.193-25.985-55.142-39.022-89.76-39.022h-731.466c-36.115 0-66.065 13.389-89.672 40.079-25.105 25.369-37.701 55.935-37.701 92.138v726.71c0 36.203 12.244 66.417 36.556 90.817 24.4 24.312 54.701 36.556 90.817 36.556h226.557v-134.419h-217.044v-712.616h712.616v202.95zM285.487 853.856c0 18.85 6.695 34.97 20.084 48.359s29.509 20.084 48.447 20.084c18.85 0 34.882-6.695 48.359-20.084 13.301-13.301 20.084-29.509 20.084-48.359 0-18.938-6.695-34.706-20.084-47.214-13.477-12.596-29.597-18.85-48.359-18.85-18.938 0-35.058 6.254-48.447 18.85s-20.084 28.276-20.084 47.214zM1145.559 693.452c0.793-7.928-1.938-14.975-8.28-21.229l-238.273-235.982c-6.342-6.254-12.949-9.425-20.172-9.425-7.047 0-13.741 3.171-20.084 9.425s-9.249 13.301-9.249 21.229v117.947h-103.853c-29.949 0-56.727-0.793-80.246-2.29-23.607-3.171-47.566-7.047-71.878-11.804-24.488-4.757-45.276-11.011-62.629-18.938-17.353-7.84-33.473-18.498-48.447-31.799-14.887-13.477-27.042-29.597-36.556-48.359-9.337-17.353-16.56-38.229-21.229-62.541-4.669-24.4-7.047-52.323-7.047-83.858 0-18.762 0-37.701 0-56.639 0-1.586 0.352-5.197 1.233-10.658 0.793-5.461 1.233-9.778 1.233-12.861 0-4.669-1.233-8.632-3.612-11.892-2.29-3.083-5.814-4.669-10.57-4.669s-9.513 2.466-14.27 7.047c-1.497 3.171-3.083 7.135-4.58 11.892l-7.135 14.094-4.757 9.513c-39.286 88.086-58.93 158.026-58.93 209.909 0 61.396 7.84 112.486 23.607 153.358 51.883 124.289 187.183 186.39 405.812 186.39h103.853v118.035c0 7.84 3.083 14.887 9.337 21.141s12.949 9.513 20.084 9.513c7.135 0 13.741-3.171 20.172-9.425l238.273-235.894c4.669-6.342 7.311-13.477 8.192-21.229zM849.502 287.639v2.202c0 18.938 6.606 35.058 20.084 48.535 13.301 13.213 29.509 19.996 48.359 19.996s34.97-6.695 48.359-19.996c13.301-13.389 20.084-29.597 20.084-48.535v-2.202c0-18.938-6.695-35.058-20.084-48.359-13.301-13.389-29.509-20.172-48.359-20.172s-34.97 6.695-48.359 20.172c-13.477 13.213-20.084 29.421-20.084 48.359z" horiz-adv-x="1146" />
<glyph unicode="&#xe607;" d="M987.815 646.58c-4.728 5.99-11.711 9.768-19.316 10.431l-66.561 5.789 9.392 67.402c1.877 13.501-6.364 26.364-19.424 30.273-156.282 46.872-264.035 32.728-388.099-52.928-124.062 85.676-231.771 99.82-388.099 52.928-13.060-3.911-21.306-16.772-19.401-30.273l9.392-67.402-66.539-5.789c-7.603-0.663-14.586-4.44-19.316-10.431-4.706-5.99-6.741-13.679-5.592-21.215l74.65-492.736c1.282-8.485 6.431-15.888 13.944-20.022 4.156-2.298 8.751-3.447 13.37-3.447 3.736 0 7.491 0.753 11.028 2.297 43.114 18.784 161.122 55.82 350.044 12.662 6.83-6.277 16.286-8.973 25.458-6.608 0.375 0.11 0.73 0.177 1.105 0.265 0.375-0.089 0.73-0.156 1.105-0.265 9.149-2.366 18.63 0.331 25.458 6.608 188.877 43.136 306.929 6.099 350.044-12.662 3.535-1.525 7.27-2.297 11.028-2.297 4.618 0 9.215 1.171 13.37 3.447 7.514 4.156 12.662 11.536 13.944 20.022l74.65 492.736c1.104 7.536-0.907 15.227-5.634 21.215zM853.322 714.025l-59.778-428.25c-82.693 15.978-184.59 18.672-265.362-55.798l-1.037 426.572c107.091 76.329 195.995 92.24 326.176 57.48zM471.901 662.534l1.038-427.147c-79.71 68.593-178.36 65.987-258.821 50.361l-59.778 428.272c126.691 33.834 214.268 19.623 317.559-51.489zM138.384 174.684l-65.103 429.842 40.087 3.491 50.164-359.347c1.061-7.711 5.347-14.586 11.756-18.983 6.453-4.376 14.409-5.879 21.966-4.088 113.256 26.849 191.043 15.536 247.439-38.474-113.742 19.799-221.055 15.536-306.311-12.443zM869.278 174.684c-50.077 16.442-107.732 24.686-169.85 24.686-43.645 0-89.499-4.088-136.437-12.265 56.374 54.011 134.183 65.346 247.439 38.473 7.557-1.789 15.556-0.309 21.966 4.087 6.431 4.398 10.696 11.291 11.756 18.983l50.164 359.346 40.087-3.491-65.124-429.82z" horiz-adv-x="1016" />
<glyph unicode="&#xe608;" d="M772.988 797.795h-99.973v34.612c0 0-14.291-14.598-52.932 27.378-29.312 31.823-50.769 78.073-107.189 78.073-63.464 0-82.035-47.828-112.673-82.809-24.012-27.457-49.701-22.648-49.701-22.648v-34.612h-103.977c-58.883 0.006-106.606-47.718-106.606-106.606v-632.578c0-58.883 47.724-106.606 106.599-106.606h526.452c58.87 0 106.606 47.724 106.606 106.606v632.578c0.006 58.888-47.736 106.612-106.606 106.612zM512.262 895.675c26.137 0 47.324-21.181 47.324-47.324 0-26.137-21.188-47.319-47.324-47.319s-47.324 21.181-47.324 47.319c0 26.137 21.188 47.324 47.324 47.324zM798.917 107.176v0c-0.006-44.174-35.791-79.965-79.965-79.965h-423.972c-44.156 0-79.965 35.791-79.965 79.965v529.595c0 44.15 35.797 79.959 79.965 79.959h55.541v-84.503h322.495v84.503h45.943c44.161 0 79.959-35.797 79.959-79.959v-529.595zM741.484 491.103l-40.563 40.489-264.755-264.712-117.586 117.556-40.532-40.594 117.562-117.519-0.32-0.313 40.551-40.551 0.326 0.325 0.325-0.325 40.557 40.551-0.331 0.325z" horiz-adv-x="1020" />
<glyph unicode="&#xe609;" d="M1002.132 645.758l-101.106 101.104c-24.792 24.794-65.37 65.368-90.162 90.164l-101.106 101.104c-24.792 24.794-68.954 29.166-98.13 9.716l-276.438-184.292c-29.176-19.452-40.218-61.028-24.536-92.39l70.486-140.974c2.154-4.306 4.646-8.896 7.39-13.66l-356.53-356.53-32-224h192v64h128v128h128v128h128v71.186c6.396-3.812 12.534-7.216 18.192-10.044l140.97-70.488c31.366-15.682 72.94-4.638 92.39 24.538l184.294 276.44c19.454 29.172 15.078 73.33-9.714 98.126zM150.628 105.374l-45.254 45.254 311.572 311.57 45.254-45.254-311.572-311.57zM917.020 536.236l-45.256-45.256c-12.446-12.444-32.808-12.444-45.254 0l-271.53 271.53c-12.446 12.444-12.446 32.81 0 45.254l45.256 45.256c12.446 12.444 32.808 12.444 45.254 0l271.53-271.53c12.446-12.444 12.446-32.81 0-45.254z" />
<glyph unicode="&#xe60a;" d="M495.586 15.865c-238.668 0-432.13 193.474-432.13 432.141 0 238.658 193.462 432.13 432.13 432.13 192.75 0 355.885-126.252 411.558-300.532h-52.485l70.739-120.543 70.745 120.543h-53.968c-56.779 192.99-235.22 333.881-446.589 333.881-257.086 0-465.479-208.402-465.479-465.484s208.393-465.49 465.479-465.49c225.43 0 413.425 160.257 456.296 373.068h-34.17c-42.343-194.237-215.201-339.714-422.126-339.714zM226.56 285.203v-35.975c0-17.208 17.983-31.169 40.166-31.169s40.166 13.96 40.166 31.169v35.975h381.877v-35.975c0-17.208 17.988-31.169 40.166-31.169 22.183 0 40.172 13.96 40.172 31.169v51.901h-542.55v-15.926zM796.688 542.981c0 18.546-13.96 33.574-31.173 33.574h-40.162c-13.53 33.195-26.924 61.992-34.785 78.036-20.466 41.793-113.308 54.455-192.432 54.455s-173.86-10.189-194.242-54.455c-7.742-16.807-20.754-45.385-33.918-78.036h-39.218c-17.213 0-31.172-15.027-31.172-33.574 0-18.537 13.96-33.569 31.172-33.569h14.643c-10.558-32.82-18.234-64.808-18.762-89.564h-0.073v-98.67h542.545v98.67h-0.073c-0.539 24.622-8.271 56.678-18.922 89.564h15.391c17.219 0 31.178 15.032 31.178 33.569zM336.718 610.895c6.105 14.032 16.336 29.807 34.785 29.807h253.259c19.040 0 29.567-16.803 34.78-29.807 5.223-13.001 28.772-71.673 28.772-71.673 0-12.488-9.127-22.615-20.394-22.615h-339.581c-11.262 0-20.4 10.133-20.4 22.615 0 0.006 21.189 54.235 28.778 71.673zM303.888 384.125c-19.199 0-34.765 15.561-34.765 34.765s15.567 34.769 34.765 34.769 34.765-15.567 34.765-34.769-15.567-34.765-34.765-34.765zM688.32 384.125c-19.199 0-34.765 15.561-34.765 34.765s15.567 34.769 34.765 34.769c19.204 0 34.775-15.567 34.775-34.769s-15.571-34.765-34.775-34.765z" horiz-adv-x="1015" />
<glyph unicode="&#xe60b;" d="M394.642 766.089c-5.379 9.401-9.099 19.254-12.014 29.207l-296.347-513.317c-22.321-38.708-8.999-88.327 29.659-110.697 37.553-21.717 89.233-7.59 110.697 29.609l247.182 428.108-79.177 137.089zM845.674 363.922c10.859 0 21.215-1.709 31.268-4.172l-296.347 513.267c-22.321 38.659-71.989 51.98-110.647 29.66-37.602-21.667-51.226-73.445-29.711-110.697l247.182-428.108h158.252zM280.125 185.912c-5.429-9.401-12.065-17.545-19.303-25.034l592.745 0.049c44.642 0 80.936 36.347 80.936 80.987 0.102 43.384-38.005 81.038-80.936 81.038h-494.314l-79.127-137.039zM154.146-17.484v100.844h714.552v-100.794z" horiz-adv-x="1021" />
<glyph unicode="&#xe60c;" d="M919.128 301.826c-57.396-169.506-218.006-291.848-406.649-291.848-236.643 0-429.166 192.524-429.166 429.176 0 236.647 192.524 429.171 429.166 429.171 224.055 0 408.528-172.589 427.533-391.795h28.438c-19.080 234.848-216.288 420.124-455.971 420.124-252.266 0-457.496-205.234-457.496-457.501 0-252.271 205.23-457.506 457.496-457.506 204.441 0 377.979 134.797 436.442 320.177h-29.793zM996.61 496.352l-43.406-82.666-43.415 82.666zM856.68 341.166c-42.749-150.147-181.050-260.454-344.72-260.454-197.642 0-358.437 160.799-358.437 358.441 0 197.647 160.795 358.441 358.437 358.441 166.257 0 306.409-113.786 346.746-267.564h29.147c-41.002 169.548-193.926 295.894-375.892 295.894-213.261 0-386.766-173.505-386.766-386.771s173.505-386.771 386.766-386.771c179.421 0 330.674 122.819 374.174 288.783h-29.453zM916.371 334.452l-47.419 90.291-47.419-90.291zM262.073 294.016v-33.108c0-15.836 16.549-28.684 36.966-28.684s36.966 12.848 36.966 28.684v33.108h351.439v-33.108c0-15.836 16.554-28.684 36.961-28.684 20.416 0 36.97 12.848 36.97 28.684v47.759h-499.301v-14.651zM786.758 531.244c0 17.069-12.848 30.903-28.689 30.903h-36.961c-12.451 30.544-24.779 57.047-32.008 71.811-18.839 38.467-104.282 50.12-177.098 50.12-72.812 0-159.997-9.377-178.76-50.12-7.125-15.463-19.099-41.763-31.215-71.811h-36.092c-15.841 0-28.689-13.834-28.689-30.903 0-17.054 12.848-30.889 28.689-30.889h13.475c-9.717-30.204-16.781-59.643-17.267-82.43h-0.066v-90.806h499.306v90.806h-0.066c-0.496 22.659-7.607 52.16-17.413 82.43h14.165c15.841 0 28.689 13.834 28.689 30.889zM363.451 593.754c5.619 12.914 15.034 27.433 32.013 27.433h233.073c17.522 0 27.215-15.463 32.008-27.433 4.807-11.969 26.484-65.966 26.484-65.966 0-11.492-8.4-20.808-18.768-20.808h-312.524c-10.364 0-18.773 9.32-18.773 20.808 0.009 0 19.51 49.907 26.488 65.966zM333.242 385.049c-17.668 0-31.994 14.321-31.994 31.998 0 17.668 14.325 31.998 31.994 31.998s31.994-14.33 31.994-31.998c0-17.673-14.325-31.998-31.994-31.998zM687.033 385.049c-17.668 0-31.998 14.321-31.998 31.998 0 17.668 14.33 31.998 31.998 31.998s31.998-14.33 31.998-31.998c0-17.673-14.33-31.998-31.998-31.998z" />
<glyph unicode="&#xe60d;" d="M152.119 567.857h486.458v-97.722h-486.458v97.722zM228.354 463.075c0-15.424-12.514-27.946-27.953-27.946h-27.946c-15.441 0-27.953 12.521-27.953 27.946v111.834c0 15.424 12.514 27.953 27.953 27.953h27.946c15.449 0 27.953-12.527 27.953-27.953v-111.834zM583.603 465.274c0-14.837-37.63-26.857-84.049-26.857h-84.038c-46.434 0-84.060 12.025-84.060 26.857v107.45c0 14.843 37.621 26.882 84.060 26.882h84.029c46.428 0 84.049-12.036 84.049-26.882v-107.45zM606.368 563.698c0 0 55.846 47.662 111.689 45.514s147.365-90.209 114.646-118.103c-32.372-27.591-20.275-84.862-13.291-107.405 10.803-34.884 118.254-178.89 87.116-295.413-33.308-124.67-132.727-134.945-175.699-111.316-42.949 23.625-75.821 117.77-47.071 199.219 39.517 111.869-10.812 226.637-40.876 252.509-30.067 25.858-40.8 53.39-36.51 134.995zM622.93 633.981l-72.477-62.498-74.882 16.826-24.853 81.501 23.808 244.439 241.955-53.345zM641.268 739.418c0 0-42.744 7.307-89.145-16.257-37.791-19.194-69.081 19.383-69.081 19.383l13.255 143.736 187.455-41.883-42.487-104.979zM483.845 954.84l247.035-54.198-5.822-26.553-247.035 54.198 5.822 26.553zM588.861 476.433c0 0-5.145-82.199-6.796-149.772-1.647-67.57-17.654-92.835-32.387-111.778-14.753-18.966-29.484-16.011-13.481 31.157 16.017 47.169 7.683 204.364-28.802 229.18-36.475 24.817 81.462 1.222 81.462 1.222z" />
<glyph unicode="&#xe60e;" d="M907.893 427.442c0-72.702-66.459-131.648-148.438-131.648h-395.823c-81.984 0-148.438 58.946-148.438 131.648v87.77c0 72.713 66.453 131.648 148.438 131.648h395.823c81.979 0 148.438-58.934 148.438-131.648v-87.77zM829.573 432.733c0-63.931-46.419-115.768-103.686-115.768h-276.492c-57.261 0-103.679 51.837-103.679 115.768v77.193c0 63.943 46.419 115.768 103.679 115.768h276.498c57.267 0 103.686-51.825 103.686-115.768v-77.193zM756.48 441.065c0-50.145-27.89-90.791-62.294-90.791h-166.112c-34.397 0-62.294 40.646-62.294 90.791v60.529c0 50.151 27.89 90.791 62.294 90.791h166.112c34.403 0 62.294-40.64 62.294-90.791v-60.529zM606.424 637.018h11.582v-341.085h-11.582v341.085zM748.876 636.117l8.442-7.913-52.911-56.447-8.442 7.913 52.911 56.447zM704.42 373.344l52.903-56.455-8.443-7.912-52.903 56.455 8.443 7.912zM410.179 630.060l112.529-60.441-5.478-10.199-112.529 60.441 5.478 10.199zM517.232 382.99l5.478-10.197-112.522-60.444-5.478 10.197 112.522 60.444zM1128.032 381.929c-2.383-34.809-23.683-61.701-47.576-60.065s-41.33 31.18-38.947 65.988c2.383 34.809 23.683 61.701 47.576 60.065s41.33-31.18 38.947-65.988zM1092.184 292.327c-7.483-18.614-25.596-28.872-40.43-22.899-14.869 5.96-20.841 25.903-13.358 44.517 7.477 18.619 25.585 28.865 40.436 22.893 14.845-5.966 20.829-25.885 13.352-44.511zM1032.307 347.796l80.667-24.241-6.773-22.536-80.667 24.241 6.773 22.536zM912.716 254.085c11.542 32.925 39.215 53.195 61.811 45.274s31.558-41.032 20.015-73.957c-11.542-32.925-39.215-53.195-61.811-45.274s-31.558 41.032-20.015 73.957zM910.306 157.583c-0.463-20.071 12.13-36.625 28.125-36.992 16.001-0.386 29.359 15.579 29.822 35.65 0.47 20.034-12.124 36.6-28.136 36.992-15.995 0.349-29.341-15.591-29.81-35.65zM984.494 161.583l-83.709 9.519 2.66 23.387 83.709-9.519-2.66-23.387zM753.346 925.088c34.802-2.393 61.683-23.7 60.040-47.59s-31.187-41.317-65.989-38.923c-34.802 2.393-61.683 23.7-60.040 47.59s31.187 41.317 65.989 38.923zM842.979 889.251c18.61-7.482 28.856-25.585 22.887-40.434s-25.896-20.822-44.505-13.341c-18.61 7.482-28.856 25.585-22.887 40.434s25.896 20.822 44.505 13.341zM787.498 829.454l24.275 80.658 22.54-6.783-24.275-80.658-22.54 6.783zM881.209 709.83c-32.925 11.549-53.19 39.228-45.265 61.822s41.041 31.547 73.966 19.998c32.925-11.549 53.19-39.228 45.265-61.822s-41.041-31.547-73.966-19.998zM977.734 707.367c-20.055 0.474-36.007 13.828-35.629 29.828s16.941 28.587 36.997 28.114c20.055-0.474 36.007-13.828 35.629-29.828s-16.942-28.587-36.997-28.114zM973.658 781.547l-9.544-83.697-23.399 2.668 9.544 83.697 23.399-2.668zM152.634 815.991c20.183 28.459 52.38 40.299 71.915 26.445s19.008-48.155-1.176-76.614c-20.183-28.459-52.38-40.299-71.915-26.445s-19.008 48.155 1.176 76.614zM229.939 873.835c16.089 11.983 36.884 11.292 46.447-1.547s4.273-32.962-11.816-44.946c-16.089-11.985-36.884-11.292-46.447 1.547s-4.273 32.962 11.816 44.946zM252.077 795.255l-56.198 62.76 17.531 15.698 56.198-62.76-17.531-15.698zM402.961 812.849c-27.018-22.074-61.204-24.936-76.355-6.391s-5.532 51.474 21.486 73.548c27.018 22.074 61.204 24.936 76.355 6.391s5.532-51.474-21.486-73.548zM455.404 893.958c-10.857-16.874-30.57-23.533-44.030-14.872s-15.571 29.359-4.714 46.235c10.857 16.874 30.57 23.533 44.030 14.872s15.571-29.361 4.714-46.235zM389.968 929.21l66.463-51.779-14.466-18.569-66.463 51.779 14.466 18.569zM84.85 178.953c-25.171 24.163-32.133 57.756-15.549 75.032s50.433 11.693 75.604-12.471c25.171-24.163 32.133-57.756 15.549-75.032s-50.433-11.693-75.604 12.471zM39.093 263.979c-9.479 17.679-5.728 38.143 8.377 45.705s33.224-0.639 42.702-18.319c9.479-17.679 5.728-38.143-8.377-45.705s-33.224 0.639-42.702 18.319zM120.019 274.306l-70.367-46.325-12.946 19.666 70.367 46.325 12.946-19.666zM124.864 426.14c17.849-29.977 15.639-64.21-4.937-76.462s-51.725 2.118-69.575 32.094c-17.849 29.977-15.639 64.21 4.937 76.461s51.725-2.118 69.575-32.094zM52.403 489.94c-15.085 13.238-35.872 14.201-46.419 2.167-10.565-12.028-6.881-32.513 8.2-45.757 15.080-13.214 35.866-14.189 46.425-2.149 10.541 12.040 6.874 32.513-8.205 45.739zM7.856 430.408l61.009 58.093 16.235-17.050-61.007-58.093-16.235 17.050zM677.107-37.695c-33.145-10.907-66.081-1.309-73.568 21.439s13.315 50.031 46.458 60.938c33.145 10.907 66.081 1.309 73.568-21.439s-13.314-50.031-46.458-60.938zM580.566-38.306c-20.061-0.084-36.379 12.822-36.445 28.827s16.141 29.048 36.202 29.132c20.061 0.084 36.379-12.822 36.445-28.827s-16.141-29.048-36.202-29.132zM609.399 38.048l7.926-83.859-23.441-2.216-7.926 83.859 23.439 2.216zM477.547 113.563c34.847 1.713 64.050-16.286 65.225-40.201s-26.12-44.691-60.968-46.405c-34.847-1.713-64.050 16.286-65.225 40.201s26.12 44.691 60.968 46.405zM387.217 79.439c-18.764-7.115-29.365-25.019-23.676-39.99 5.677-14.965 25.5-21.316 44.258-14.189 18.746 7.115 29.346 25.019 23.67 40.002-5.694 14.941-25.494 21.305-44.252 14.177zM418.933 12.213l-22.713 81.131 22.667 6.345 22.713-81.131-22.667-6.345z" horiz-adv-x="1021" />
<glyph unicode="&#xe60f;" d="M968.252 340.262l-146.319 61.086c2.717 16.736 4.187 33.886 4.187 51.389 0 13.812-0.98 27.395-2.682 40.748l145.409 59.769c19.494 8.014 28.794 30.313 20.781 49.806l-29.013 70.599c-8.008 19.5-30.306 28.807-49.801 20.793l-142.646-58.623c-18.478 26.249-40.8 49.57-66.182 69.158l58.64 140.477c8.114 19.458-1.074 41.804-20.527 49.919l-70.446 29.397c-19.453 8.126-41.799-1.074-49.919-20.527l-57.507-137.773c-17.764 3.071-35.993 4.765-54.625 4.765-15.153 0-30.041-1.128-44.633-3.177l-56.219 136.77c-8.008 19.494-30.313 28.801-49.806 20.787l-70.593-29.013c-19.494-8.008-28.801-30.313-20.793-49.806l55.8-135.76c-27.348-19.754-51.43-43.724-71.296-70.989l-135.506 56.562c-19.452 8.12-41.804-1.064-49.925-20.522l-29.409-70.434c-8.114-19.452 1.081-41.81 20.527-49.925l136.693-57.064c-2.167-15.012-3.343-30.336-3.343-45.944 0-18.093 1.589-35.811 4.488-53.078l-138.423-56.893c-19.494-8.008-28.801-30.313-20.793-49.812l29.013-70.599c8.008-19.494 30.313-28.801 49.806-20.793l141.204 58.038c19.399-25.388 42.531-47.739 68.574-66.306l-59.58-142.74c-8.114-19.446 1.069-41.799 20.522-49.919l70.434-29.397c19.446-8.126 41.799 1.074 49.919 20.515l60.708 145.409c13.954-1.866 28.168-2.924 42.631-2.924 16.759 0 33.212 1.317 49.274 3.809l60.372-146.867c8.008-19.506 30.306-28.807 49.806-20.793l70.599 29.013c19.5 8.014 28.801 30.313 20.793 49.812l-60.802 147.924c24.33 18.124 45.974 39.649 64.256 63.849l147.541-61.593c19.458-8.114 41.804 1.074 49.925 20.527l29.403 70.446c8.12 19.441-1.064 41.787-20.522 49.9zM362.038 452.729c0 80.397 65.173 145.568 145.562 145.568 80.397 0 145.568-65.173 145.568-145.568 0-80.391-65.173-145.562-145.568-145.562-80.384-0.006-145.562 65.173-145.562 145.562z" />
<glyph unicode="&#xe610;" d="M832 960h-768c-35.36 0-64-28.608-64-64v-896c0-35.36 28.64-64 64-64h768c35.36 0 64 28.64 64 64v896c0 35.36-28.64 64-64 64zM256 64h-128v128h128v-128zM256 256h-128v128h128v-128zM256 448h-128v128h128v-128zM512 64h-128v128h128v-128zM512 256h-128v128h128v-128zM512 448h-128v128h128v-128zM768 64h-128v128h128v-128zM768 256h-128v128h128v-128zM768 448h-128v128h128v-128zM768 704h-640v128h640v-128z" horiz-adv-x="896" />
<glyph unicode="&#xe611;" d="M963.269 884.846h-603.398c-27.781 0-50.284-22.476-50.284-50.284v-218.831h177.598c23.004 0 44.701-9.026 61.093-25.442 16.469-16.668 25.418-38.266 25.418-61.093v-270.322c0-28.31-5.481-56.467-16.291-83.697-9.905-24.94-22.577-47.743-37.662-67.706-6.863-9.126-14.482-18.227-22.753-27.153h466.299c27.756 0 50.284 22.503 50.284 50.284v703.963c-0.024 27.781-22.553 50.284-50.308 50.284zM711.852 180.885h-100.566v100.566h100.566v-100.566zM711.852 331.733h-100.566v100.566h100.566v-100.566zM711.852 482.581h-100.566v100.566h100.566v-100.566zM912.984 180.885h-100.566v100.566h100.566v-100.566zM912.984 331.733h-100.566v100.566h100.566v-100.566zM912.984 482.581h-100.566v100.566h100.566v-100.566zM912.984 683.714h-502.83v100.566h502.83v-100.566zM503.027 545.058c-4.475 4.475-9.755 6.687-15.84 6.687h-405.458c-6.109 0-11.364-2.212-15.865-6.687-4.45-4.475-6.712-9.755-6.712-15.84v-270.296c0-20.19 3.947-40.227 11.866-60.063 7.82-19.786 17.623-37.361 29.214-52.797 11.591-15.361 25.442-30.295 41.533-44.826 16.066-14.532 30.923-26.624 44.526-36.28 13.652-9.628 27.831-18.705 42.614-27.229 14.758-8.573 25.267-14.381 31.452-17.423 6.261-3.017 11.289-5.43 14.984-7.040 2.815-1.408 5.833-2.112 9.151-2.112s6.31 0.704 9.101 2.112c3.77 1.659 8.775 4.023 15.009 7.040 6.185 3.042 16.694 8.875 31.477 17.423s28.963 17.65 42.565 27.229c13.626 9.654 28.51 21.747 44.551 36.28s29.893 29.466 41.484 44.826c11.641 15.387 21.396 32.986 29.24 52.797 7.895 19.835 11.793 39.823 11.793 60.038v270.322c0 6.084-2.263 11.364-6.687 15.84zM442.083 258.899c0-41.332-27.555-83.495-82.691-126.687-22.049-17.347-47.065-33.439-74.946-48.221h-0.024v400.178h157.662v-225.267z" />
<glyph unicode="&#xe612;" d="M107.158 242.868c8.101-42.8 22.707-82.92 43.756-120.362s48.859-69.844 83.43-97.208 76.223-49.178 124.827-65.124c48.604-16.074 104.862-24.111 168.583-24.111 66.91 0 126.102 7.208 177.385 21.495 51.347 14.352 102.502 33.806 153.657 58.491l-59.766 157.867c-29.851-11.417-56.322-21.177-79.348-29.277s-44.713-14.862-65.124-20.347c-20.284-5.485-39.738-9.313-58.299-11.545-18.561-2.169-38.016-3.253-58.299-3.253-58.363 0-103.969 11.29-136.754 33.806-32.785 22.58-57.151 55.748-72.97 99.632h310.695v159.015h-638.932v-159.079h107.158zM639.059 469.049v159.143h-318.222c13.14 51.474 36.868 90.319 71.248 116.471s83.43 39.228 147.215 39.228c19.454 0 38.462-0.765 57.024-2.296s37.505-4.274 57.024-8.228c19.454-3.955 40.376-9.44 62.7-16.52 22.452-7.016 47.328-16.52 75.011-28.384l61.042 157.74c-42.991 19.454-90.574 36.549-142.75 51.474-52.367 14.862-110.284 22.325-174.069 22.325-59.32 0-112.771-8.037-160.482-24.174s-89.426-38.59-125.146-67.548-65.571-63.721-89.554-104.416-42.034-85.982-54.281-135.67h-105.819v-159.143h639.059z" horiz-adv-x="859" />
<glyph unicode="&#xe613;" d="M838.172 562.415l-101.729 108.286-23.178-21.772c-56.727 57.15-130.175 97.635-212.301 113.52l0.046 56.272-148.554 0.084-0.065-55.087c-191.903-33.627-338.25-201.349-338.25-402.732 0-225.523 183.484-408.988 409.001-408.988s408.975 183.477 408.975 408.988c0 58.14-12.279 113.443-34.24 163.574l40.294 37.853zM450.792 50.956v32.462c0 12.592-10.196 22.787-22.787 22.787-12.585 0-22.787-10.196-22.787-22.787v-33.211c-154.648 8.828-279.367 131.034-292.232 284.589h40.88c12.585 0 22.787 10.202 22.787 22.787s-10.202 22.787-22.787 22.787h-41.401c9.688 156.732 135.826 282.433 292.752 291.392v-51.929c0-12.592 10.202-22.787 22.787-22.787 12.592 0 22.787 10.196 22.787 22.787v51.187c152.376-13.484 273.527-137.167 283.007-290.643h-31.635c-12.585 0-22.787-10.202-22.787-22.787s10.202-22.787 22.787-22.787h31.121c-12.592-150.319-132.375-270.571-282.492-283.847zM544.605 846.691l-227.848 0.182 0.091 97.126 227.803-0.175zM372.808 361.6c0-27.534 22.344-49.885 49.878-49.885 27.541 0 49.872 22.358 49.872 49.885 0 27.541-22.332 49.872-49.872 49.872-27.534 0-49.878-22.325-49.878-49.872zM626.307 379.4h-157.077c-7.175 18.738-25.28 32.071-46.539 32.071-27.534 0-49.878-22.332-49.878-49.872 0-27.534 22.344-49.885 49.878-49.885 17.26 0 32.469 8.783 41.421 22.111h162.194c12.592 0 22.787 10.209 22.787 22.787 0 12.592-10.202 22.787-22.787 22.787zM853.446 585.383l-100.469 104.721 37.585 36.059 100.469-104.721-37.585-36.059z" horiz-adv-x="905" />
<glyph unicode="&#xe614;" d="M793.318 269.443l-28.855-28.87-529.387 529.351 28.907 28.863zM266.96 791.591l-27.007-26.992-66.087 25.401-70.063 90.424 47.361 47.354 90.417-70.041zM724.312 378.271c-19.665 19.701-29.516 76.202-29.516 76.202l-117.673-117.666c0 0 57.3-10.606 71.933-25.217 9.506-9.528 14.024-39.828 27.748-53.515l314.74-314.688c9.213-9.235 23.508-9.917 31.943-1.467l66.227 66.241c8.376 8.384 7.716 22.716-1.504 31.921l-314.688 314.703c-15.279 15.279-39.968 14.281-49.21 23.486zM173.866 790l66.087-25.401 29.097 29.097-27.469 64.041zM825.32 801.009c-4.386 36.997 22.019 70.584 59.068 74.992l96.96 11.523c-6.293 10.423-13.782 20.34-22.775 29.34-60.021 60.007-152.653 54.975-217.34-0.022-76.371-65.009-47.515-209.623-103.392-259.985-55.811-50.317-50.405-39.799-130.634-100.752-100.495-76.283-477.735-425.973-477.735-425.973-39.293-39.33-39.293-103.084 0-142.37 39.315-39.315 103.026-39.286 142.363 0 0 0 333.392 356.072 426.002 477.684 71.852 94.319 81.703 118.979 117.857 154.795 36.139 35.809 175.003 11.435 242.865 79.283 15.726 15.726 27.22 34.041 34.701 53.537l-92.955-11.076c-36.99-4.394-70.547 22.041-74.984 59.024zM149.565 16.434c-25.247-25.254-66.168-25.232-91.422 0-25.247 25.232-25.247 66.146 0 91.393 25.254 25.239 66.168 25.239 91.422 0.044 25.203-25.261 25.247-66.19 0-91.437z" horiz-adv-x="1096" />
<glyph unicode="&#xe615;" d="M111.789 261.472c-0.135-45.433 36.502-82.29 81.9-82.469 45.371-0.171 82.285 36.461 82.438 81.894 0.171 45.371-36.486 82.284-81.881 82.43-45.371 0.165-82.277-36.498-82.454-81.856zM131.040 261.385c0.16 34.86 28.504 63.039 63.363 62.908 34.855-0.122 63.002-28.504 62.875-63.338-0.109-34.86-28.454-63.029-63.333-62.892-34.859 0.104-63.017 28.508-62.908 63.327zM132.445 261.356c0.14 33.925 27.807 61.447 61.716 61.317 33.933-0.129 61.416-27.801 61.285-61.708-0.109-33.958-27.783-61.417-61.716-61.261-33.884 0.098-61.409 27.747-61.285 61.653zM138.374 261.356c-0.116-30.635 24.741-55.741 55.387-55.785 30.646-0.109 55.688 24.734 55.79 55.412 0.116 30.627-24.741 55.663-55.407 55.773-30.636 0.062-55.65-24.771-55.773-55.399zM173.009 258.926l-36.608-14.066 2.126-5.51 25.657 9.849-23.765-14.375 3.041-5.001 32.852 19.85c1.216-1.876 2.681-3.55 4.399-4.861l-15.903-35.862 5.387-2.399 11.171 25.114-6.67-26.976 5.741-1.43 9.179 37.284c1.382-0.305 2.822-0.478 4.269-0.44 0.788 0 1.539 0.015 2.315 0.062l14.053-36.565 5.516 2.126-9.879 25.651 14.401-23.751 5.033 3.029-19.85 32.882c1.85 1.222 3.487 2.682 4.88 4.41l35.843-15.983 2.37 5.441-25.113 11.188 26.988-6.676 1.43 5.735-37.284 9.187c0.312 1.381 0.458 2.805 0.458 4.294 0 0.713-0.032 1.491-0.116 2.248l36.589 14.053-2.119 5.515-25.657-9.87 23.792 14.394-3.065 5.063-32.876-19.856c-1.191 1.818-2.658 3.487-4.355 4.861l15.932 35.82-5.419 2.399-11.182-25.071 6.67 26.976-5.728 1.381-9.191-37.247c-1.392 0.251-2.822 0.469-4.281 0.494-0.763-0.043-1.54-0.129-2.296-0.171l-14.048 36.631-5.51-2.168 9.865-25.657-14.371 23.818-5.082-3.096 19.867-32.834c-1.845-1.227-3.494-2.676-4.868-4.415l-35.867 15.916-2.389-5.374 25.145-11.171-27.001 6.656-1.416-5.727 37.284-9.191c-0.312-1.381-0.464-2.791-0.435-4.288-0.032-0.721 0-1.491 0.098-2.297zM205.055 261.124c-0.016 1.863 1.498 3.316 3.32 3.297 1.85-0.015 3.341-1.459 3.32-3.297 0.015-1.863-1.482-3.366-3.359-3.366-1.832 0.026-3.316 1.527-3.286 3.366zM190.585 246.784c0 1.825 1.491 3.331 3.331 3.297 1.85-0.015 3.334-1.527 3.331-3.341-0.012-1.817-1.516-3.34-3.352-3.316-1.801-0.012-3.292 1.502-3.304 3.359zM190.701 275.544c0 1.88 1.483 3.389 3.341 3.359 1.789 0.015 3.32-1.533 3.292-3.347-0.012-1.887-1.521-3.341-3.333-3.311-1.832-0.015-3.33 1.473-3.297 3.297zM176.234 261.221c0.012 1.87 1.501 3.32 3.352 3.312 1.856-0.026 3.32-1.473 3.292-3.312 0.015-1.876-1.473-3.367-3.311-3.341-1.87 0.015-3.333 1.508-3.333 3.341zM777.068 259.133c-0.178-45.409 36.473-82.308 81.862-82.468 45.391-0.165 82.302 36.473 82.449 81.856 0.165 45.399-36.491 82.315-81.85 82.469-45.395 0.165-82.302-36.51-82.46-81.856zM796.344 259.059c0.098 34.884 28.497 62.992 63.327 62.874 34.86-0.085 62.993-28.442 62.888-63.327-0.153-34.798-28.484-62.985-63.334-62.883-34.85 0.116-63.020 28.484-62.883 63.334zM797.737 259.029c0.104 33.951 27.794 61.428 61.703 61.317 33.925-0.153 61.409-27.808 61.295-61.716-0.135-33.97-27.789-61.428-61.72-61.27-33.907 0.104-61.417 27.747-61.276 61.665zM803.624 259.049c-0.122-30.677 24.753-55.705 55.408-55.801 30.652-0.128 55.668 24.722 55.779 55.387 0.122 30.635-24.729 55.667-55.367 55.779-30.677 0.116-55.716-24.715-55.816-55.364zM838.264 256.597l-36.584-14.071 2.094-5.476 25.662 9.865-23.782-14.389 3.085-5.059 32.834 19.861c1.209-1.88 2.713-3.481 4.41-4.85l-15.91-35.882 5.363-2.407 11.194 25.131-6.64-26.969 5.72-1.441 9.161 37.284c1.407-0.287 2.815-0.434 4.269-0.439 0.781-0.015 1.55 0.033 2.297 0.104l14.071-36.552 5.528 2.070-9.832 25.662 14.339-23.765 5.082 3.029-19.885 32.869c1.84 1.227 3.487 2.738 4.893 4.436l35.821-15.983 2.414 5.441-25.156 11.163 27.007-6.676 1.423 5.735-37.273 9.203c0.298 1.416 0.447 2.829 0.464 4.288-0.015 0.777-0.043 1.54-0.135 2.235l36.6 14.070-2.112 5.519-25.681-9.865 23.807 14.389-3.079 5.038-32.86-19.856c-1.191 1.832-2.688 3.486-4.404 4.916l15.951 35.789-5.404 2.432-11.177-25.107 6.647 26.957-5.721 1.374-9.192-37.218c-1.366 0.244-2.815 0.464-4.269 0.489-0.788 0-1.55-0.093-2.291-0.171l-14.089 36.594-5.51-2.112 9.889-25.694-14.384 23.807-5.059-3.096 19.85-32.82c-1.85-1.162-3.481-2.692-4.868-4.421l-35.832 15.948-2.375-5.387 25.107-11.177-26.984 6.65-1.43-5.718 37.247-9.174c-0.28-1.411-0.439-2.808-0.458-4.269 0.015-0.771 0.044-1.526 0.14-2.315zM870.28 258.821c0.038 1.825 1.515 3.281 3.347 3.262 1.856 0.044 3.347-1.478 3.311-3.304 0.044-1.863-1.479-3.32-3.33-3.352-1.816 0.015-3.33 1.527-3.33 3.396zM855.87 244.444c-0.015 1.84 1.467 3.331 3.33 3.304 1.825-0.015 3.304-1.521 3.316-3.341-0.015-1.816-1.508-3.341-3.366-3.304-1.818 0.012-3.316 1.521-3.281 3.341zM855.952 273.247c-0.015 1.863 1.479 3.331 3.341 3.359 1.832-0.032 3.316-1.521 3.33-3.396 0-1.87-1.515-3.333-3.359-3.311-1.844-0.026-3.311 1.478-3.311 3.347zM841.494 258.926c0.015 1.808 1.502 3.262 3.352 3.256 1.825 0.032 3.34-1.467 3.316-3.292-0.015-1.887-1.527-3.347-3.334-3.366-1.85 0.015-3.333 1.508-3.333 3.4zM19.265 247.979c5.673-1.044 33.896-17.094 46.188-17.162 12.306-0.032 27.788-0.062 31.508 2.371 7.64 4.85 6.835 13.107 5.979 24.611-0.153 2.168-0.237 4.399-0.237 6.576 0.195 50.741 41.481 91.756 92.242 91.574 50.722-0.177 91.744-41.493 91.531-92.214-0.464-30.642 9.966-36.675 18.841-36.736 11.807-0.038 15.757 3.666 21.442 10.985 22.397-0.317 386.946-2.344 397.295-0.89 10.339 1.411 19.623-12.085 26.268-12.14 6.647 0.015 9.688 5.747 11.738 10.95 2.461 6.155 2.981 15.854 3.023 22.457 0.195 51.18 41.842 92.466 92.965 92.296 51.157-0.177 92.472-41.791 92.275-92.899-0.012-2.807-0.012-2.807-0.38-8.264 21.027 0.208 22.5 3.764 28.082 7.885 12.863 9.688 14.634 33.891 14.719 62.954 0.122 29.015-15.090 46.739-23.167 55.168 8.197 22.096 0.263 55.407-4.722 62.749 1.501 5.856-3.626 13.755-8.781 18.487-5.16 4.64-11.031 7.183-18.67 6.949-3.947 4.19-55.657 57.273-60.799 61.221-5.142 3.939-9.087 6.902-5.387 9.351 3.738 2.473 5.911 5.655 9.37 7.872 3.452 2.155 3.469 4.855-4.136 5.606-7.64 0.819-48.438 7.072-97.623 10.197-49.195 3.121-123.222 8.324-189.675 8.533-66.405 0.294-110.975-7.452-123.29-10.869-96.746-26.427-205.465-88.782-210.141-91.732-4.708-2.95-7.426-5.136-13.544-2.407-6.145 2.676-13.559 0.298-14.024-1.96-0.532-2.176 0.22-3.181-5.198-2.877-5.387 0.214-8.63-4.924-8.624-6.632-0.012-1.724-2.494-3.151-4.203-3.433-95.341-15.414-198.446-47.864-185.345-98.512-13.142-13.767-10.504-47.186-10.536-53.316 0-6.137 1.643-27.581-0.599-32.956-2.224-5.435-0.026-12.849 5.606-13.791zM915.443 570.792c-26.824-1.546-511.703 16.845-556.551 30.244-127.912 38.226 54.312 111.141 146.437 117.28 117.464 7.848 314.761-31.221 408.801-56.669 94.029-25.451 28.142-89.291 1.314-90.852z" horiz-adv-x="1017" />
<glyph unicode="&#xf001;" d="M877.714 832v-640q0-28.571-19.429-50.857t-49.143-34.571-59.143-18.286-55.143-6-55.143 6-59.143 18.286-49.143 34.571-19.429 50.857 19.429 50.857 49.143 34.571 59.143 18.286 55.143 6q60 0 109.714-22.286v306.857l-438.857-135.429v-405.143q0-28.571-19.429-50.857t-49.143-34.571-59.143-18.286-55.143-6-55.143 6-59.143 18.286-49.143 34.571-19.429 50.857 19.429 50.857 49.143 34.571 59.143 18.286 55.143 6q60 0 109.714-22.286v552.571q0 17.714 10.857 32.286t28 20.286l475.429 146.286q6.857 2.286 16 2.286 22.857 0 38.857-16t16-38.857z" horiz-adv-x="878" />
<glyph unicode="&#xf002;" d="M658.286 484.571q0 105.714-75.143 180.857t-180.857 75.143-180.857-75.143-75.143-180.857 75.143-180.857 180.857-75.143 180.857 75.143 75.143 180.857zM950.857 9.143q0-29.714-21.714-51.429t-51.429-21.714q-30.857 0-51.429 21.714l-196 195.429q-102.286-70.857-228-70.857-81.714 0-156.286 31.714t-128.571 85.714-85.714 128.571-31.714 156.286 31.714 156.286 85.714 128.571 128.571 85.714 156.286 31.714 156.286-31.714 128.571-85.714 85.714-128.571 31.714-156.286q0-125.714-70.857-228l196-196q21.143-21.143 21.143-51.429z" horiz-adv-x="951" />
<glyph unicode="&#xf004;" d="M512 9.143q-14.857 0-25.143 10.286l-356.571 344q-5.714 4.571-15.714 14.857t-31.714 37.429-38.857 55.714-30.571 69.143-13.429 78.857q0 125.714 72.571 196.571t200.571 70.857q35.429 0 72.286-12.286t68.571-33.143 54.571-39.143 43.429-38.857q20.571 20.571 43.429 38.857t54.571 39.143 68.571 33.143 72.286 12.286q128 0 200.571-70.857t72.571-196.571q0-126.286-130.857-257.143l-356-342.857q-10.286-10.286-25.143-10.286z" />
<glyph unicode="&#xf005;" d="M950.857 590.286q0-12.571-14.857-27.429l-207.429-202.286 49.143-285.714q0.571-4 0.571-11.429 0-12-6-20.286t-17.429-8.286q-10.857 0-22.857 6.857l-256.571 134.857-256.571-134.857q-12.571-6.857-22.857-6.857-12 0-18 8.286t-6 20.286q0 3.429 1.143 11.429l49.143 285.714-208 202.286q-14.286 15.429-14.286 27.429 0 21.143 32 26.286l286.857 41.714 128.571 260q10.857 23.429 28 23.429t28-23.429l128.571-260 286.857-41.714q32-5.143 32-26.286z" horiz-adv-x="951" />
<glyph unicode="&#xf007;" d="M804.571 157.143q0-68.571-41.714-108.286t-110.857-39.714h-499.429q-69.143 0-110.857 39.714t-41.714 108.286q0 30.286 2 59.143t8 62.286 15.143 62 24.571 55.714 35.429 46.286 48.857 30.571 63.714 11.429q5.143 0 24-12.286t42.571-27.429 61.714-27.429 76.286-12.286 76.286 12.286 61.714 27.429 42.571 27.429 24 12.286q34.857 0 63.714-11.429t48.857-30.571 35.429-46.286 24.571-55.714 15.143-62 8-62.286 2-59.143zM621.714 667.429q0-90.857-64.286-155.143t-155.143-64.286-155.143 64.286-64.286 155.143 64.286 155.143 155.143 64.286 155.143-64.286 64.286-155.143z" horiz-adv-x="805" />
<glyph unicode="&#xf009;" d="M438.857 374.857v-219.429q0-29.714-21.714-51.429t-51.429-21.714h-292.571q-29.714 0-51.429 21.714t-21.714 51.429v219.429q0 29.714 21.714 51.429t51.429 21.714h292.571q29.714 0 51.429-21.714t21.714-51.429zM438.857 813.714v-219.429q0-29.714-21.714-51.429t-51.429-21.714h-292.571q-29.714 0-51.429 21.714t-21.714 51.429v219.429q0 29.714 21.714 51.429t51.429 21.714h292.571q29.714 0 51.429-21.714t21.714-51.429zM950.857 374.857v-219.429q0-29.714-21.714-51.429t-51.429-21.714h-292.571q-29.714 0-51.429 21.714t-21.714 51.429v219.429q0 29.714 21.714 51.429t51.429 21.714h292.571q29.714 0 51.429-21.714t21.714-51.429zM950.857 813.714v-219.429q0-29.714-21.714-51.429t-51.429-21.714h-292.571q-29.714 0-51.429 21.714t-21.714 51.429v219.429q0 29.714 21.714 51.429t51.429 21.714h292.571q29.714 0 51.429-21.714t21.714-51.429z" horiz-adv-x="951" />
<glyph unicode="&#xf00c;" d="M954.857 636.571q0-22.857-16-38.857l-491.429-491.429q-16-16-38.857-16t-38.857 16l-284.571 284.571q-16 16-16 38.857t16 38.857l77.714 77.714q16 16 38.857 16t38.857-16l168-168.571 374.857 375.429q16 16 38.857 16t38.857-16l77.714-77.714q16-16 16-38.857z" />
<glyph unicode="&#xf00d;" d="M741.714 204.571q0-22.857-16-38.857l-77.714-77.714q-16-16-38.857-16t-38.857 16l-168 168-168-168q-16-16-38.857-16t-38.857 16l-77.714 77.714q-16 16-16 38.857t16 38.857l168 168-168 168q-16 16-16 38.857t16 38.857l77.714 77.714q16 16 38.857 16t38.857-16l168-168 168 168q16 16 38.857 16t38.857-16l77.714-77.714q16-16 16-38.857t-16-38.857l-168-168 168-168q16-16 16-38.857z" horiz-adv-x="805" />
<glyph unicode="&#xf013;" d="M292.857 448q0 60.571 42.857 103.429t103.429 42.857 103.429-42.857 42.857-103.429-42.857-103.429-103.429-42.857-103.429 42.857-42.857 103.429zM0.286 510.286v-126.857q0-6.857 4.571-13.143t11.429-7.429l105.714-16q10.857-30.857 22.286-52-20-28.571-61.143-78.857-5.714-6.857-5.714-14.286t5.143-13.143q15.429-21.143 56.571-61.714t53.714-40.571q6.857 0 14.857 5.143l78.857 61.714q25.143-13.143 52-21.714 9.143-77.714 16.571-106.286 4-16 20.571-16h126.857q8 0 14 4.857t6.571 12.286l16 105.143q28 9.143 51.429 21.143l80.571-61.143q5.714-5.143 14.286-5.143 8 0 14.286 6.286 72 65.143 94.286 96 4 5.714 4 13.143 0 6.857-4.571 13.143-8.571 12-29.143 38t-30.857 40.286q15.429 28.571 23.429 56.571l104.571 15.429q7.429 1.143 12 7.143t4.571 13.429v126.857q0 6.857-4.571 13.143t-10.857 7.429l-106.286 16q-8 26.286-22.286 52.571 22.857 32.571 61.143 78.857 5.714 6.857 5.714 13.714 0 5.714-5.143 13.143-14.857 20.571-56.286 61.429t-54 40.857q-7.429 0-14.857-5.714l-78.857-61.143q-25.143 13.143-52 21.714-9.143 77.714-16.571 106.286-4 16-20.571 16h-126.857q-8 0-14-4.857t-6.571-12.286l-16-105.143q-28-9.143-51.429-21.143l-81.143 61.143q-5.143 5.143-13.714 5.143-7.429 0-14.286-5.714-73.714-68-94.286-97.143-4-4.571-4-12.571 0-6.857 4.571-13.143 8.571-12 29.143-38t30.857-40.286q-14.857-28.571-23.429-56l-104.571-16q-7.429-1.143-12-7.143t-4.571-13.429z" horiz-adv-x="878" />
<glyph unicode="&#xf014;" d="M292.571 539.429v-329.143q0-8-5.143-13.143t-13.143-5.143h-36.571q-8 0-13.143 5.143t-5.143 13.143v329.143q0 8 5.143 13.143t13.143 5.143h36.571q8 0 13.143-5.143t5.143-13.143zM438.857 539.429v-329.143q0-8-5.143-13.143t-13.143-5.143h-36.571q-8 0-13.143 5.143t-5.143 13.143v329.143q0 8 5.143 13.143t13.143 5.143h36.571q8 0 13.143-5.143t5.143-13.143zM585.143 539.429v-329.143q0-8-5.143-13.143t-13.143-5.143h-36.571q-8 0-13.143 5.143t-5.143 13.143v329.143q0 8 5.143 13.143t13.143 5.143h36.571q8 0 13.143-5.143t5.143-13.143zM658.286 125.714v541.714h-512v-541.714q0-12.571 4-23.143t8.286-15.429 6-4.857h475.429q1.714 0 6 4.857t8.286 15.429 4 23.143zM274.286 740.571h256l-27.429 66.857q-4 5.143-9.714 6.286h-181.143q-5.714-1.143-9.714-6.286zM804.571 722.286v-36.571q0-8-5.143-13.143t-13.143-5.143h-54.857v-541.714q0-47.429-26.857-82t-64.571-34.571h-475.429q-37.714 0-64.571 33.429t-26.857 80.857v544h-54.857q-8 0-13.143 5.143t-5.143 13.143v36.571q0 8 5.143 13.143t13.143 5.143h176.571l40 95.429q8.571 21.143 30.857 36t45.143 14.857h182.857q22.857 0 45.143-14.857t30.857-36l40-95.429h176.571q8 0 13.143-5.143t5.143-13.143z" horiz-adv-x="805" />
<glyph unicode="&#xf019;" d="M731.429 192q0 14.857-10.857 25.714t-25.714 10.857-25.714-10.857-10.857-25.714 10.857-25.714 25.714-10.857 25.714 10.857 10.857 25.714zM877.714 192q0 14.857-10.857 25.714t-25.714 10.857-25.714-10.857-10.857-25.714 10.857-25.714 25.714-10.857 25.714 10.857 10.857 25.714zM950.857 320v-182.857q0-22.857-16-38.857t-38.857-16h-841.143q-22.857 0-38.857 16t-16 38.857v182.857q0 22.857 16 38.857t38.857 16h265.714l77.143-77.714q33.143-32 77.714-32t77.714 32l77.714 77.714h265.143q22.857 0 38.857-16t16-38.857zM765.143 645.143q9.714-23.429-8-40l-256-256q-10.286-10.857-25.714-10.857t-25.714 10.857l-256 256q-17.714 16.571-8 40 9.714 22.286 33.714 22.286h146.286v256q0 14.857 10.857 25.714t25.714 10.857h146.286q14.857 0 25.714-10.857t10.857-25.714v-256h146.286q24 0 33.714-22.286z" horiz-adv-x="951" />
<glyph unicode="&#xf01e;" d="M877.714 813.714v-256q0-14.857-10.857-25.714t-25.714-10.857h-256q-24 0-33.714 22.857-9.714 22.286 8 39.429l78.857 78.857q-84.571 78.286-199.429 78.286-59.429 0-113.429-23.143t-93.429-62.571-62.571-93.429-23.143-113.429 23.143-113.429 62.571-93.429 93.429-62.571 113.429-23.143q68 0 128.571 29.714t102.286 84q4 5.714 13.143 6.857 8 0 14.286-5.143l78.286-78.857q5.143-4.571 5.429-11.714t-4.286-12.857q-62.286-75.429-150.857-116.857t-186.857-41.429q-89.143 0-170.286 34.857t-140 93.714-93.714 140-34.857 170.286 34.857 170.286 93.714 140 140 93.714 170.286 34.857q84 0 162.571-31.714t139.714-89.429l74.286 73.714q16.571 17.714 40 8 22.286-9.714 22.286-33.714z" horiz-adv-x="878" />
<glyph unicode="&#xf023;" d="M182.857 521.143h292.571v109.714q0 60.571-42.857 103.429t-103.429 42.857-103.429-42.857-42.857-103.429v-109.714zM658.286 466.286v-329.143q0-22.857-16-38.857t-38.857-16h-548.571q-22.857 0-38.857 16t-16 38.857v329.143q0 22.857 16 38.857t38.857 16h18.286v109.714q0 105.143 75.429 180.571t180.571 75.429 180.571-75.429 75.429-180.571v-109.714h18.286q22.857 0 38.857-16t16-38.857z" horiz-adv-x="658" />
<glyph unicode="&#xf026;" d="M438.857 758.857v-621.714q0-14.857-10.857-25.714t-25.714-10.857-25.714 10.857l-190.286 190.286h-149.714q-14.857 0-25.714 10.857t-10.857 25.714v219.429q0 14.857 10.857 25.714t25.714 10.857h149.714l190.286 190.286q10.857 10.857 25.714 10.857t25.714-10.857 10.857-25.714z" horiz-adv-x="439" />
<glyph unicode="&#xf027;" d="M438.857 758.857v-621.714q0-14.857-10.857-25.714t-25.714-10.857-25.714 10.857l-190.286 190.286h-149.714q-14.857 0-25.714 10.857t-10.857 25.714v219.429q0 14.857 10.857 25.714t25.714 10.857h149.714l190.286 190.286q10.857 10.857 25.714 10.857t25.714-10.857 10.857-25.714zM658.286 448q0-43.429-24.286-80.857t-64.286-53.429q-5.714-2.857-14.286-2.857-14.857 0-25.714 10.571t-10.857 26q0 12 6.857 20.286t16.571 14.286 19.429 13.143 16.571 20.286 6.857 32.571-6.857 32.571-16.571 20.286-19.429 13.143-16.571 14.286-6.857 20.286q0 15.429 10.857 26t25.714 10.571q8.571 0 14.286-2.857 40-15.429 64.286-53.143t24.286-81.143z" horiz-adv-x="658" />
<glyph unicode="&#xf028;" d="M438.857 758.857v-621.714q0-14.857-10.857-25.714t-25.714-10.857-25.714 10.857l-190.286 190.286h-149.714q-14.857 0-25.714 10.857t-10.857 25.714v219.429q0 14.857 10.857 25.714t25.714 10.857h149.714l190.286 190.286q10.857 10.857 25.714 10.857t25.714-10.857 10.857-25.714zM658.286 448q0-43.429-24.286-80.857t-64.286-53.429q-5.714-2.857-14.286-2.857-14.857 0-25.714 10.571t-10.857 26q0 12 6.857 20.286t16.571 14.286 19.429 13.143 16.571 20.286 6.857 32.571-6.857 32.571-16.571 20.286-19.429 13.143-16.571 14.286-6.857 20.286q0 15.429 10.857 26t25.714 10.571q8.571 0 14.286-2.857 40-15.429 64.286-53.143t24.286-81.143zM804.571 448q0-87.429-48.571-161.429t-128.571-107.714q-7.429-2.857-14.286-2.857-15.429 0-26.286 10.857t-10.857 25.714q0 22.286 22.286 33.714 32 16.571 43.429 25.143 42.286 30.857 66 77.429t23.714 99.143-23.714 99.143-66 77.429q-11.429 8.571-43.429 25.143-22.286 11.429-22.286 33.714 0 14.857 10.857 25.714t25.714 10.857q7.429 0 14.857-2.857 80-33.714 128.571-107.714t48.571-161.429zM950.857 448q0-131.429-72.571-241.429t-193.143-162q-7.429-2.857-14.857-2.857-14.857 0-25.714 10.857t-10.857 25.714q0 20.571 22.286 33.714 4 2.286 12.857 6t12.857 6q26.286 14.286 46.857 29.143 70.286 52 109.714 129.714t39.429 165.143-39.429 165.143-109.714 129.714q-20.571 14.857-46.857 29.143-4 2.286-12.857 6t-12.857 6q-22.286 13.143-22.286 33.714 0 14.857 10.857 25.714t25.714 10.857q7.429 0 14.857-2.857 120.571-52 193.143-162t72.571-241.429z" horiz-adv-x="951" />
<glyph unicode="&#xf02b;" d="M256 704q0 30.286-21.429 51.714t-51.714 21.429-51.714-21.429-21.429-51.714 21.429-51.714 51.714-21.429 51.714 21.429 21.429 51.714zM865.714 374.857q0-30.286-21.143-51.429l-280.571-281.143q-22.286-21.143-52-21.143-30.286 0-51.429 21.143l-408.571 409.143q-21.714 21.143-36.857 57.714t-15.143 66.857v237.714q0 29.714 21.714 51.429t51.429 21.714h237.714q30.286 0 66.857-15.143t58.286-36.857l408.571-408q21.143-22.286 21.143-52z" horiz-adv-x="878" />
<glyph unicode="&#xf02d;" d="M936.571 686.857q22.857-32.571 10.286-73.714l-157.143-517.714q-10.857-36.571-43.714-61.429t-70-24.857h-527.429q-44 0-84.857 30.571t-56.857 75.143q-13.714 38.286-1.143 72.571 0 2.286 1.714 15.429t2.286 21.143q0.571 4.571-1.714 12.286t-1.714 11.143q1.143 6.286 4.571 12t9.429 13.429 9.429 13.429q13.143 21.714 25.714 52.286t17.143 52.286q1.714 5.714 0.286 17.143t-0.286 16q1.714 6.286 9.714 16t9.714 13.143q12 20.571 24 52.571t14.286 51.429q0.571 5.143-1.429 18.286t0.286 16q2.286 7.429 12.571 17.429t12.571 12.857q10.857 14.857 24.286 48.286t15.714 55.143q0.571 4.571-1.714 14.571t-1.143 15.143q1.143 4.571 5.143 10.286t10.286 13.143 9.714 12q4.571 6.857 9.429 17.429t8.571 20 9.143 20.571 11.143 18.286 15.143 13.429 20.571 6.571 27.143-3.143l-0.571-1.714q21.714 5.143 29.143 5.143h434.857q42.286 0 65.143-32t10.286-74.286l-156.571-517.714q-20.571-68-40.857-87.714t-73.429-19.714h-496.571q-15.429 0-21.714-8.571-6.286-9.143-0.571-24.571 13.714-40 82.286-40h527.429q16.571 0 32 8.857t20 23.714l171.429 564q4 12.571 2.857 32.571 21.714-8.571 33.714-24.571zM328.571 685.714q-2.286-7.429 1.143-12.857t11.429-5.429h347.429q7.429 0 14.571 5.429t9.429 12.857l12 36.571q2.286 7.429-1.143 12.857t-11.429 5.429h-347.429q-7.429 0-14.571-5.429t-9.429-12.857zM281.143 539.429q-2.286-7.429 1.143-12.857t11.429-5.429h347.429q7.429 0 14.571 5.429t9.429 12.857l12 36.571q2.286 7.429-1.143 12.857t-11.429 5.429h-347.429q-7.429 0-14.571-5.429t-9.429-12.857z" horiz-adv-x="951" />
<glyph unicode="&#xf02e;" d="M665.143 886.857q13.143 0 25.143-5.143 18.857-7.429 30-23.429t11.143-35.429v-736.571q0-19.429-11.143-35.429t-30-23.429q-10.857-4.571-25.143-4.571-27.429 0-47.429 18.286l-252 242.286-252-242.286q-20.571-18.857-47.429-18.857-13.143 0-25.143 5.143-18.857 7.429-30 23.429t-11.143 35.429v736.571q0 19.429 11.143 35.429t30 23.429q12 5.143 25.143 5.143h598.857z" horiz-adv-x="731" />
<glyph unicode="&#xf02f;" d="M219.429 82.286h512v146.286h-512v-146.286zM219.429 448h512v219.429h-91.429q-22.857 0-38.857 16t-16 38.857v91.429h-365.714v-365.714zM877.714 411.429q0 14.857-10.857 25.714t-25.714 10.857-25.714-10.857-10.857-25.714 10.857-25.714 25.714-10.857 25.714 10.857 10.857 25.714zM950.857 411.429v-237.714q0-7.429-5.429-12.857t-12.857-5.429h-128v-91.429q0-22.857-16-38.857t-38.857-16h-548.571q-22.857 0-38.857 16t-16 38.857v91.429h-128q-7.429 0-12.857 5.429t-5.429 12.857v237.714q0 45.143 32.286 77.429t77.429 32.286h36.571v310.857q0 22.857 16 38.857t38.857 16h384q22.857 0 50.286-11.429t43.429-27.429l86.857-86.857q16-16 27.429-43.429t11.429-50.286v-146.286h36.571q45.143 0 77.429-32.286t32.286-77.429z" horiz-adv-x="951" />
<glyph unicode="&#xf030;" d="M548.571 576q68 0 116.286-48.286t48.286-116.286-48.286-116.286-116.286-48.286-116.286 48.286-48.286 116.286 48.286 116.286 116.286 48.286zM950.857 813.714q60.571 0 103.429-42.857t42.857-103.429v-512q0-60.571-42.857-103.429t-103.429-42.857h-804.571q-60.571 0-103.429 42.857t-42.857 103.429v512q0 60.571 42.857 103.429t103.429 42.857h128l29.143 77.714q10.857 28 39.714 48.286t59.143 20.286h292.571q30.286 0 59.143-20.286t39.714-48.286l29.143-77.714h128zM548.571 155.429q105.714 0 180.857 75.143t75.143 180.857-75.143 180.857-180.857 75.143-180.857-75.143-75.143-180.857 75.143-180.857 180.857-75.143z" horiz-adv-x="1097" />
<glyph unicode="&#xf03d;" d="M1024 758.857v-621.714q0-24-22.286-33.714-7.429-2.857-14.286-2.857-15.429 0-25.714 10.857l-230.286 230.286v-94.857q0-68-48.286-116.286t-116.286-48.286h-402.286q-68 0-116.286 48.286t-48.286 116.286v402.286q0 68 48.286 116.286t116.286 48.286h402.286q68 0 116.286-48.286t48.286-116.286v-94.286l230.286 229.714q10.286 10.857 25.714 10.857 6.857 0 14.286-2.857 22.286-9.714 22.286-33.714z" />
<glyph unicode="&#xf03e;" d="M365.714 630.857q0-45.714-32-77.714t-77.714-32-77.714 32-32 77.714 32 77.714 77.714 32 77.714-32 32-77.714zM950.857 411.429v-256h-804.571v109.714l182.857 182.857 91.429-91.429 292.571 292.571zM1005.714 813.714h-914.286q-7.429 0-12.857-5.429t-5.429-12.857v-694.857q0-7.429 5.429-12.857t12.857-5.429h914.286q7.429 0 12.857 5.429t5.429 12.857v694.857q0 7.429-5.429 12.857t-12.857 5.429zM1097.143 795.429v-694.857q0-37.714-26.857-64.571t-64.571-26.857h-914.286q-37.714 0-64.571 26.857t-26.857 64.571v694.857q0 37.714 26.857 64.571t64.571 26.857h914.286q37.714 0 64.571-26.857t26.857-64.571z" horiz-adv-x="1097" />
<glyph unicode="&#xf041;" d="M438.857 594.286q0 60.571-42.857 103.429t-103.429 42.857-103.429-42.857-42.857-103.429 42.857-103.429 103.429-42.857 103.429 42.857 42.857 103.429zM585.143 594.286q0-62.286-18.857-102.286l-208-442.286q-9.143-18.857-27.143-29.714t-38.571-10.857-38.571 10.857-26.571 29.714l-208.571 442.286q-18.857 40-18.857 102.286 0 121.143 85.714 206.857t206.857 85.714 206.857-85.714 85.714-206.857z" horiz-adv-x="585" />
<glyph unicode="&#xf048;" d="M559.429 879.429q10.857 10.857 18.286 7.429t7.429-18.286v-841.143q0-14.857-7.429-18.286t-18.286 7.429l-405.714 405.714q-5.143 5.143-7.429 10.857v-387.429q0-14.857-10.857-25.714t-25.714-10.857h-73.143q-14.857 0-25.714 10.857t-10.857 25.714v804.571q0 14.857 10.857 25.714t25.714 10.857h73.143q14.857 0 25.714-10.857t10.857-25.714v-387.429q2.286 6.286 7.429 10.857z" horiz-adv-x="585" />
<glyph unicode="&#xf049;" d="M998.286 879.429q10.857 10.857 18.286 7.429t7.429-18.286v-841.143q0-14.857-7.429-18.286t-18.286 7.429l-405.714 405.714q-5.143 5.143-7.429 10.857v-405.714q0-14.857-7.429-18.286t-18.286 7.429l-405.714 405.714q-5.143 5.143-7.429 10.857v-387.429q0-14.857-10.857-25.714t-25.714-10.857h-73.143q-14.857 0-25.714 10.857t-10.857 25.714v804.571q0 14.857 10.857 25.714t25.714 10.857h73.143q14.857 0 25.714-10.857t10.857-25.714v-387.429q2.286 6.286 7.429 10.857l405.714 405.714q10.857 10.857 18.286 7.429t7.429-18.286v-405.714q2.286 6.286 7.429 10.857z" />
<glyph unicode="&#xf04a;" d="M925.143 879.429q10.857 10.857 18.286 7.429t7.429-18.286v-841.143q0-14.857-7.429-18.286t-18.286 7.429l-405.714 405.714q-4.571 5.143-7.429 10.857v-405.714q0-14.857-7.429-18.286t-18.286 7.429l-405.714 405.714q-10.857 10.857-10.857 25.714t10.857 25.714l405.714 405.714q10.857 10.857 18.286 7.429t7.429-18.286v-405.714q2.857 6.286 7.429 10.857z" horiz-adv-x="951" />
<glyph unicode="&#xf04b;" d="M790.857 430.286l-758.857-421.714q-13.143-7.429-22.571-1.714t-9.429 20.571v841.143q0 14.857 9.429 20.571t22.571-1.714l758.857-421.714q13.143-7.429 13.143-17.714t-13.143-17.714z" horiz-adv-x="805" />
<glyph unicode="&#xf04c;" d="M877.714 850.286v-804.571q0-14.857-10.857-25.714t-25.714-10.857h-292.571q-14.857 0-25.714 10.857t-10.857 25.714v804.571q0 14.857 10.857 25.714t25.714 10.857h292.571q14.857 0 25.714-10.857t10.857-25.714zM365.714 850.286v-804.571q0-14.857-10.857-25.714t-25.714-10.857h-292.571q-14.857 0-25.714 10.857t-10.857 25.714v804.571q0 14.857 10.857 25.714t25.714 10.857h292.571q14.857 0 25.714-10.857t10.857-25.714z" horiz-adv-x="878" />
<glyph unicode="&#xf04d;" d="M877.714 850.286v-804.571q0-14.857-10.857-25.714t-25.714-10.857h-804.571q-14.857 0-25.714 10.857t-10.857 25.714v804.571q0 14.857 10.857 25.714t25.714 10.857h804.571q14.857 0 25.714-10.857t10.857-25.714z" horiz-adv-x="878" />
<glyph unicode="&#xf04e;" d="M25.714 16.571q-10.857-10.857-18.286-7.429t-7.429 18.286v841.143q0 14.857 7.429 18.286t18.286-7.429l405.714-405.714q4.571-4.571 7.429-10.857v405.714q0 14.857 7.429 18.286t18.286-7.429l405.714-405.714q10.857-10.857 10.857-25.714t-10.857-25.714l-405.714-405.714q-10.857-10.857-18.286-7.429t-7.429 18.286v405.714q-2.857-5.714-7.429-10.857z" horiz-adv-x="951" />
<glyph unicode="&#xf050;" d="M25.714 16.571q-10.857-10.857-18.286-7.429t-7.429 18.286v841.143q0 14.857 7.429 18.286t18.286-7.429l405.714-405.714q4.571-4.571 7.429-10.857v405.714q0 14.857 7.429 18.286t18.286-7.429l405.714-405.714q4.571-4.571 7.429-10.857v387.429q0 14.857 10.857 25.714t25.714 10.857h73.143q14.857 0 25.714-10.857t10.857-25.714v-804.571q0-14.857-10.857-25.714t-25.714-10.857h-73.143q-14.857 0-25.714 10.857t-10.857 25.714v387.429q-2.857-5.714-7.429-10.857l-405.714-405.714q-10.857-10.857-18.286-7.429t-7.429 18.286v405.714q-2.857-5.714-7.429-10.857z" />
<glyph unicode="&#xf051;" d="M25.714 16.571q-10.857-10.857-18.286-7.429t-7.429 18.286v841.143q0 14.857 7.429 18.286t18.286-7.429l405.714-405.714q4.571-4.571 7.429-10.857v387.429q0 14.857 10.857 25.714t25.714 10.857h73.143q14.857 0 25.714-10.857t10.857-25.714v-804.571q0-14.857-10.857-25.714t-25.714-10.857h-73.143q-14.857 0-25.714 10.857t-10.857 25.714v387.429q-2.857-5.714-7.429-10.857z" horiz-adv-x="585" />
<glyph unicode="&#xf053;" d="M424 61.143l-372.571 372q-21.143 21.143-21.143 51.714t21.143 51.714l372.571 372q21.143 21.143 51.714 21.143t51.714-21.143l42.857-42.857q21.143-21.143 21.143-51.714t-21.143-51.714l-277.714-277.714 277.714-277.143q21.143-21.714 21.143-52t-21.143-51.429l-42.857-42.857q-21.143-21.143-51.714-21.143t-51.714 21.143z" horiz-adv-x="658" />
<glyph unicode="&#xf054;" d="M628 484.571q0-29.714-21.143-52l-372.571-372q-21.143-21.143-51.429-21.143t-51.429 21.143l-43.429 42.857q-21.143 22.286-21.143 52 0 30.286 21.143 51.429l277.714 277.714-277.714 277.143q-21.143 22.286-21.143 52 0 30.286 21.143 51.429l43.429 42.857q20.571 21.714 51.429 21.714t51.429-21.714l372.571-372q21.143-21.143 21.143-51.429z" horiz-adv-x="658" />
<glyph unicode="&#xf059;" d="M512 173.714v109.714q0 8-5.143 13.143t-13.143 5.143h-109.714q-8 0-13.143-5.143t-5.143-13.143v-109.714q0-8 5.143-13.143t13.143-5.143h109.714q8 0 13.143 5.143t5.143 13.143zM658.286 557.714q0 50.286-31.714 93.143t-79.143 66.286-97.143 23.429q-138.857 0-212-121.714-8.571-13.714 4.571-24l75.429-57.143q4-3.429 10.857-3.429 9.143 0 14.286 6.857 30.286 38.857 49.143 52.571 19.429 13.714 49.143 13.714 27.429 0 48.857-14.857t21.429-33.714q0-21.714-11.429-34.857t-38.857-25.714q-36-16-66-49.429t-30-71.714v-20.571q0-8 5.143-13.143t13.143-5.143h109.714q8 0 13.143 5.143t5.143 13.143q0 10.857 12.286 28.286t31.143 28.286q18.286 10.286 28 16.286t26.286 20 25.429 27.429 16 34.571 7.143 46.286zM877.714 448q0-119.429-58.857-220.286t-159.714-159.714-220.286-58.857-220.286 58.857-159.714 159.714-58.857 220.286 58.857 220.286 159.714 159.714 220.286 58.857 220.286-58.857 159.714-159.714 58.857-220.286z" horiz-adv-x="878" />
<glyph unicode="&#xf05a;" d="M585.143 173.714v91.429q0 8-5.143 13.143t-13.143 5.143h-54.857v292.571q0 8-5.143 13.143t-13.143 5.143h-182.857q-8 0-13.143-5.143t-5.143-13.143v-91.429q0-8 5.143-13.143t13.143-5.143h54.857v-182.857h-54.857q-8 0-13.143-5.143t-5.143-13.143v-91.429q0-8 5.143-13.143t13.143-5.143h256q8 0 13.143 5.143t5.143 13.143zM512 685.714v91.429q0 8-5.143 13.143t-13.143 5.143h-109.714q-8 0-13.143-5.143t-5.143-13.143v-91.429q0-8 5.143-13.143t13.143-5.143h109.714q8 0 13.143 5.143t5.143 13.143zM877.714 448q0-119.429-58.857-220.286t-159.714-159.714-220.286-58.857-220.286 58.857-159.714 159.714-58.857 220.286 58.857 220.286 159.714 159.714 220.286 58.857 220.286-58.857 159.714-159.714 58.857-220.286z" horiz-adv-x="878" />
<glyph unicode="&#xf064;" d="M1024 594.286q0-14.857-10.857-25.714l-292.571-292.571q-10.857-10.857-25.714-10.857t-25.714 10.857-10.857 25.714v146.286h-128q-56 0-100.286-3.429t-88-12.286-76-24.286-60.286-39.714-45.714-57.714-27.714-79.143-10-103.429q0-31.429 2.857-70.286 0-3.429 1.429-13.429t1.429-15.143q0-8.571-4.857-14.286t-13.429-5.714q-9.143 0-16 9.714-4 5.143-7.429 12.571t-7.714 17.143-6 13.714q-72.571 162.857-72.571 257.714 0 113.714 30.286 190.286 92.571 230.286 500 230.286h128v146.286q0 14.857 10.857 25.714t25.714 10.857 25.714-10.857l292.571-292.571q10.857-10.857 10.857-25.714z" />
<glyph unicode="&#xf065;" d="M431.429 356.571q0-7.429-5.714-13.143l-189.714-189.714 82.286-82.286q10.857-10.857 10.857-25.714t-10.857-25.714-25.714-10.857h-256q-14.857 0-25.714 10.857t-10.857 25.714v256q0 14.857 10.857 25.714t25.714 10.857 25.714-10.857l82.286-82.286 189.714 189.714q5.714 5.714 13.143 5.714t13.143-5.714l65.143-65.143q5.714-5.714 5.714-13.143zM877.714 850.286v-256q0-14.857-10.857-25.714t-25.714-10.857-25.714 10.857l-82.286 82.286-189.714-189.714q-5.714-5.714-13.143-5.714t-13.143 5.714l-65.143 65.143q-5.714 5.714-5.714 13.143t5.714 13.143l189.714 189.714-82.286 82.286q-10.857 10.857-10.857 25.714t10.857 25.714 25.714 10.857h256q14.857 0 25.714-10.857t10.857-25.714z" horiz-adv-x="878" />
<glyph unicode="&#xf066;" d="M438.857 411.429v-256q0-14.857-10.857-25.714t-25.714-10.857-25.714 10.857l-82.286 82.286-189.714-189.714q-5.714-5.714-13.143-5.714t-13.143 5.714l-65.143 65.143q-5.714 5.714-5.714 13.143t5.714 13.143l189.714 189.714-82.286 82.286q-10.857 10.857-10.857 25.714t10.857 25.714 25.714 10.857h256q14.857 0 25.714-10.857t10.857-25.714zM870.286 795.429q0-7.429-5.714-13.143l-189.714-189.714 82.286-82.286q10.857-10.857 10.857-25.714t-10.857-25.714-25.714-10.857h-256q-14.857 0-25.714 10.857t-10.857 25.714v256q0 14.857 10.857 25.714t25.714 10.857 25.714-10.857l82.286-82.286 189.714 189.714q5.714 5.714 13.143 5.714t13.143-5.714l65.143-65.143q5.714-5.714 5.714-13.143z" horiz-adv-x="878" />
<glyph unicode="&#xf067;" d="M804.571 539.429v-109.714q0-22.857-16-38.857t-38.857-16h-237.714v-237.714q0-22.857-16-38.857t-38.857-16h-109.714q-22.857 0-38.857 16t-16 38.857v237.714h-237.714q-22.857 0-38.857 16t-16 38.857v109.714q0 22.857 16 38.857t38.857 16h237.714v237.714q0 22.857 16 38.857t38.857 16h109.714q22.857 0 38.857-16t16-38.857v-237.714h237.714q22.857 0 38.857-16t16-38.857z" horiz-adv-x="805" />
<glyph unicode="&#xf068;" d="M804.571 539.429v-109.714q0-22.857-16-38.857t-38.857-16h-694.857q-22.857 0-38.857 16t-16 38.857v109.714q0 22.857 16 38.857t38.857 16h694.857q22.857 0 38.857-16t16-38.857z" horiz-adv-x="805" />
<glyph unicode="&#xf06a;" d="M438.857 886.857q119.429 0 220.286-58.857t159.714-159.714 58.857-220.286-58.857-220.286-159.714-159.714-220.286-58.857-220.286 58.857-159.714 159.714-58.857 220.286 58.857 220.286 159.714 159.714 220.286 58.857zM512 174.286v108.571q0 8-5.143 13.429t-12.571 5.429h-109.714q-7.429 0-13.143-5.714t-5.714-13.143v-108.571q0-7.429 5.714-13.143t13.143-5.714h109.714q7.429 0 12.571 5.429t5.143 13.429zM510.857 370.857l10.286 354.857q0 6.857-5.714 10.286-5.714 4.571-13.714 4.571h-125.714q-8 0-13.714-4.571-5.714-3.429-5.714-10.286l9.714-354.857q0-5.714 5.714-10t13.714-4.286h105.714q8 0 13.429 4.286t6 10z" horiz-adv-x="878" />
<glyph unicode="&#xf075;" d="M1024 438.857q0-99.429-68.571-183.714t-186.286-133.143-257.143-48.857q-40 0-82.857 4.571-113.143-100-262.857-138.286-28-8-65.143-12.571-9.714-1.143-17.429 5.143t-10 16.571v0.571q-1.714 2.286-0.286 6.857t1.143 5.714 2.571 5.429l3.429 5.143t4 4.857 4.571 5.143q4 4.571 17.714 19.714t19.714 21.714 17.714 22.571 18.571 29.143 15.429 33.714 14.857 43.429q-89.714 50.857-141.429 125.714t-51.714 160.571q0 74.286 40.571 142t109.143 116.857 163.429 78 198.857 28.857q139.429 0 257.143-48.857t186.286-133.143 68.571-183.714z" />
<glyph unicode="&#xf077;" d="M920.571 265.143q0-30.286-21.143-51.429l-42.857-42.857q-21.714-21.714-52-21.714-30.857 0-51.429 21.714l-277.714 277.143-277.714-277.143q-20.571-21.714-51.429-21.714t-51.429 21.714l-42.857 42.857q-21.714 20.571-21.714 51.429 0 30.286 21.714 52l372 372q21.143 21.143 51.429 21.143 29.714 0 52-21.143l371.429-372q21.714-21.714 21.714-52z" horiz-adv-x="951" />
<glyph unicode="&#xf078;" d="M920.571 557.714q0-30.286-21.143-51.429l-372-372q-21.714-21.714-52-21.714-30.857 0-51.429 21.714l-372 372q-21.714 20.571-21.714 51.429 0 30.286 21.714 52l42.286 42.857q22.286 21.143 52 21.143 30.286 0 51.429-21.143l277.714-277.714 277.714 277.714q21.143 21.143 51.429 21.143 29.714 0 52-21.143l42.857-42.857q21.143-22.286 21.143-52z" horiz-adv-x="951" />
<glyph unicode="&#xf07b;" d="M950.857 612.571v-402.286q0-52.571-37.714-90.286t-90.286-37.714h-694.857q-52.571 0-90.286 37.714t-37.714 90.286v548.571q0 52.571 37.714 90.286t90.286 37.714h182.857q52.571 0 90.286-37.714t37.714-90.286v-18.286h384q52.571 0 90.286-37.714t37.714-90.286z" horiz-adv-x="951" />
<glyph unicode="&#xf086;" d="M804.571 512q0-79.429-53.714-146.857t-146.571-106.571-202-39.143q-49.143 0-100.571 9.143-70.857-50.286-158.857-73.143-20.571-5.143-49.143-9.143h-1.714q-6.286 0-11.714 4.571t-6.571 12q-0.571 1.714-0.571 3.714t0.286 3.714 1.143 3.429l1.429 2.857t2 3.143 2.286 2.857 2.571 2.857 2.286 2.571q2.857 3.429 13.143 14.286t14.857 16.857 12.857 16.571 14.286 22 11.714 25.143q-70.857 41.143-111.429 101.143t-40.571 128q0 79.429 53.714 146.857t146.571 106.571 202 39.143 202-39.143 146.571-106.571 53.714-146.857zM1024 365.714q0-68.571-40.571-128.286t-111.429-100.857q5.714-13.714 11.714-25.143t14.286-22 12.857-16.571 14.857-16.857 13.143-14.286q0.571-0.571 2.286-2.571t2.571-2.857 2.286-2.857 2-3.143l1.429-2.857t1.143-3.429 0.286-3.714-0.571-3.714q-1.714-8-7.429-12.571t-12.571-4q-28.571 4-49.143 9.143-88 22.857-158.857 73.143-51.429-9.143-100.571-9.143-154.857 0-269.714 75.429 33.143-2.286 50.286-2.286 92 0 176.571 25.714t150.857 73.714q71.429 52.571 109.714 121.143t38.286 145.143q0 44-13.143 86.857 73.714-40.571 116.571-101.714t42.857-131.429z" />
<glyph unicode="&#xf087;" d="M146.286 192q0 14.857-10.857 25.714t-25.714 10.857-25.714-10.857-10.857-25.714 10.857-25.714 25.714-10.857 25.714 10.857 10.857 25.714zM804.571 521.143q0 29.143-22.286 51.143t-50.857 22h-201.143q0 33.143 27.429 91.143t27.429 91.714q0 56-18.286 82.857t-73.143 26.857q-14.857-14.857-21.714-48.571t-17.429-71.714-34-62.571q-12.571-13.143-44-52-2.286-2.857-13.143-17.143t-18-23.429-19.714-24.286-22.857-25.143-22-20.286-22.857-15.429-20.286-5.143h-18.286v-365.714h18.286q7.429 0 18-1.714t18.857-3.714 21.714-6.286 20-6.571 20.286-7.143 16.571-6q120.571-41.714 195.429-41.714h69.143q109.714 0 109.714 95.429 0 14.857-2.857 32 17.143 9.143 27.143 30t10 42-10.286 39.429q30.286 28.571 30.286 68 0 14.286-5.714 31.714t-14.286 27.143q18.286 0.571 30.571 26.857t12.286 46.286zM877.714 521.714q0-50.857-28-93.143 5.143-18.857 5.143-39.429 0-44-21.714-82.286 1.714-12 1.714-24.571 0-57.714-34.286-101.714 0.571-79.429-48.571-125.429t-129.714-46h-73.714q-54.857 0-108.286 12.857t-123.714 37.429q-66.286 22.857-78.857 22.857h-164.571q-30.286 0-51.714 21.429t-21.429 51.714v365.714q0 30.286 21.429 51.714t51.714 21.429h156.571q20.571 13.714 78.286 88.571 33.143 42.857 61.143 73.143 13.714 14.286 20.286 48.857t17.429 72.286 35.429 61.714q22.286 21.143 51.429 21.143 48 0 86.286-18.571t58.286-58 20-106.286q0-53.143-27.429-109.714h100.571q59.429 0 102.857-43.429t43.429-102.286z" horiz-adv-x="878" />
<glyph unicode="&#xf089;" d="M475.429 941.714v-765.143l-256.571-134.857q-12.571-6.857-22.857-6.857-12 0-18 8.286t-6 20.286q0 3.429 1.143 11.429l49.143 285.714-208 202.286q-14.286 15.429-14.286 27.429 0 21.143 32 26.286l286.857 41.714 128.571 260q10.857 23.429 28 23.429z" horiz-adv-x="512" />
<glyph unicode="&#xf08e;" d="M804.571 429.714v-182.857q0-68-48.286-116.286t-116.286-48.286h-475.429q-68 0-116.286 48.286t-48.286 116.286v475.429q0 68 48.286 116.286t116.286 48.286h402.286q8 0 13.143-5.143t5.143-13.143v-36.571q0-8-5.143-13.143t-13.143-5.143h-402.286q-37.714 0-64.571-26.857t-26.857-64.571v-475.429q0-37.714 26.857-64.571t64.571-26.857h475.429q37.714 0 64.571 26.857t26.857 64.571v182.857q0 8 5.143 13.143t13.143 5.143h36.571q8 0 13.143-5.143t5.143-13.143zM1024 923.429v-292.571q0-14.857-10.857-25.714t-25.714-10.857-25.714 10.857l-100.571 100.571-372.571-372.571q-5.714-5.714-13.143-5.714t-13.143 5.714l-65.143 65.143q-5.714 5.714-5.714 13.143t5.714 13.143l372.571 372.571-100.571 100.571q-10.857 10.857-10.857 25.714t10.857 25.714 25.714 10.857h292.571q14.857 0 25.714-10.857t10.857-25.714z" />
<glyph unicode="&#xf093;" d="M731.429 118.857q0 14.857-10.857 25.714t-25.714 10.857-25.714-10.857-10.857-25.714 10.857-25.714 25.714-10.857 25.714 10.857 10.857 25.714zM877.714 118.857q0 14.857-10.857 25.714t-25.714 10.857-25.714-10.857-10.857-25.714 10.857-25.714 25.714-10.857 25.714 10.857 10.857 25.714zM950.857 246.857v-182.857q0-22.857-16-38.857t-38.857-16h-841.143q-22.857 0-38.857 16t-16 38.857v182.857q0 22.857 16 38.857t38.857 16h244q12-32 40.286-52.571t63.143-20.571h146.286q34.857 0 63.143 20.571t40.286 52.571h244q22.857 0 38.857-16t16-38.857zM765.143 617.143q-9.714-22.857-33.714-22.857h-146.286v-256q0-14.857-10.857-25.714t-25.714-10.857h-146.286q-14.857 0-25.714 10.857t-10.857 25.714v256h-146.286q-24 0-33.714 22.857-9.714 22.286 8 39.429l256 256q10.286 10.857 25.714 10.857t25.714-10.857l256-256q17.714-17.143 8-39.429z" horiz-adv-x="951" />
<glyph unicode="&#xf095;" d="M804.571 251.429q0-15.429-5.714-40.286t-12-39.143q-12-28.571-69.714-60.571-53.714-29.143-106.286-29.143-15.429 0-30 2t-32.857 7.143-27.143 8.286-31.714 11.714-28 10.286q-56 20-100 47.429-73.143 45.143-151.143 123.143t-123.143 151.143q-27.429 44-47.429 100-1.714 5.143-10.286 28t-11.714 31.714-8.286 27.143-7.143 32.857-2 30q0 52.571 29.143 106.286 32 57.714 60.571 69.714 14.286 6.286 39.143 12t40.286 5.714q8 0 12-1.714 10.286-3.429 30.286-43.429 6.286-10.857 17.143-30.857t20-36.286 17.714-30.571q1.714-2.286 10-14.286t12.286-20.286 4-16.286q0-11.429-16.286-28.571t-35.429-31.429-35.429-30.286-16.286-26.286q0-5.143 2.857-12.857t4.857-11.714 8-13.714 6.571-10.857q43.429-78.286 99.429-134.286t134.286-99.429q1.143-0.571 10.857-6.571t13.714-8 11.714-4.857 12.857-2.857q10.286 0 26.286 16.286t30.286 35.429 31.429 35.429 28.571 16.286q8 0 16.286-4t20.286-12.286 14.286-10q14.286-8.571 30.571-17.714t36.286-20 30.857-17.143q40-20 43.429-30.286 1.714-4 1.714-12z" horiz-adv-x="805" />
<glyph unicode="&#xf099;" d="M925.714 726.857q-38.286-56-92.571-95.429 0.571-8 0.571-24 0-74.286-21.714-148.286t-66-142-105.429-120.286-147.429-83.429-184.571-31.143q-154.857 0-283.429 82.857 20-2.286 44.571-2.286 128.571 0 229.143 78.857-60 1.143-107.429 36.857t-65.143 91.143q18.857-2.857 34.857-2.857 24.571 0 48.571 6.286-64 13.143-106 63.714t-42 117.429v2.286q38.857-21.714 83.429-23.429-37.714 25.143-60 65.714t-22.286 88q0 50.286 25.143 93.143 69.143-85.143 168.286-136.286t212.286-56.857q-4.571 21.714-4.571 42.286 0 76.571 54 130.571t130.571 54q80 0 134.857-58.286 62.286 12 117.143 44.571-21.143-65.714-81.143-101.714 53.143 5.714 106.286 28.571z" horiz-adv-x="951" />
<glyph unicode="&#xf09a;" d="M292 642.286h146.857l-17.143-162.286h-129.714v-470.857h-194.857v470.857h-97.143v162.286h97.143v97.714q0 104 49.143 157.429t161.714 53.429h129.714v-162.286h-81.143q-22.286 0-35.714-3.714t-19.429-13.429-7.714-19.714-1.714-28.286v-81.143z" horiz-adv-x="439" />
<glyph unicode="&#xf09e;" d="M219.429 192q0-45.714-32-77.714t-77.714-32-77.714 32-32 77.714 32 77.714 77.714 32 77.714-32 32-77.714zM512 121.714q1.143-16-9.714-27.429-10.286-12-26.857-12h-77.143q-14.286 0-24.571 9.429t-11.429 23.714q-12.571 130.857-105.429 223.714t-223.714 105.429q-14.286 1.143-23.714 11.429t-9.429 24.571v77.143q0 16.571 12 26.857 9.714 9.714 24.571 9.714h2.857q91.429-7.429 174.857-46t148-103.714q65.143-64.571 103.714-148t46-174.857zM804.571 120.571q1.143-15.429-10.286-26.857-10.286-11.429-26.286-11.429h-81.714q-14.857 0-25.429 10t-11.143 24.286q-6.857 122.857-57.714 233.429t-132.286 192-192 132.286-233.429 58.286q-14.286 0.571-24.286 11.143t-10 24.857v81.714q0 16 11.429 26.286 10.286 10.286 25.143 10.286h1.714q149.714-7.429 286.571-68.571t243.143-168q106.857-106.286 168-243.143t68.571-286.571z" horiz-adv-x="805" />
<glyph unicode="&#xf0c1;" d="M832 265.143q0 22.857-16 38.857l-118.857 118.857q-16 16-38.857 16-24 0-41.143-18.286 1.714-1.714 10.857-10.571t12.286-12.286 8.571-10.857 7.429-14.571 2-15.714q0-22.857-16-38.857t-38.857-16q-8.571 0-15.714 2t-14.571 7.429-10.857 8.571-12.286 12.286-10.571 10.857q-18.857-17.714-18.857-41.714 0-22.857 16-38.857l117.714-118.286q15.429-15.429 38.857-15.429 22.857 0 38.857 14.857l84 83.429q16 16 16 38.286zM430.286 668q0 22.857-16 38.857l-117.714 118.286q-16 16-38.857 16-22.286 0-38.857-15.429l-84-83.429q-16-16-16-38.286 0-22.857 16-38.857l118.857-118.857q15.429-15.429 38.857-15.429 24 0 41.143 17.714-1.714 1.714-10.857 10.571t-12.286 12.286-8.571 10.857-7.429 14.571-2 15.714q0 22.857 16 38.857t38.857 16q8.571 0 15.714-2t14.571-7.429 10.857-8.571 12.286-12.286 10.571-10.857q18.857 17.714 18.857 41.714zM941.714 265.143q0-68.571-48.571-116l-84-83.429q-47.429-47.429-116-47.429-69.143 0-116.571 48.571l-117.714 118.286q-47.429 47.429-47.429 116 0 70.286 50.286 119.429l-50.286 50.286q-49.143-50.286-118.857-50.286-68.571 0-116.571 48l-118.857 118.857q-48 48-48 116.571t48.571 116l84 83.429q47.429 47.429 116 47.429 69.143 0 116.571-48.571l117.714-118.286q47.429-47.429 47.429-116 0-70.286-50.286-119.429l50.286-50.286q49.143 50.286 118.857 50.286 68.571 0 116.571-48l118.857-118.857q48-48 48-116.571z" horiz-adv-x="951" />
<glyph unicode="&#xf0c9;" d="M877.714 192v-73.143q0-14.857-10.857-25.714t-25.714-10.857h-804.571q-14.857 0-25.714 10.857t-10.857 25.714v73.143q0 14.857 10.857 25.714t25.714 10.857h804.571q14.857 0 25.714-10.857t10.857-25.714zM877.714 484.571v-73.143q0-14.857-10.857-25.714t-25.714-10.857h-804.571q-14.857 0-25.714 10.857t-10.857 25.714v73.143q0 14.857 10.857 25.714t25.714 10.857h804.571q14.857 0 25.714-10.857t10.857-25.714zM877.714 777.143v-73.143q0-14.857-10.857-25.714t-25.714-10.857h-804.571q-14.857 0-25.714 10.857t-10.857 25.714v73.143q0 14.857 10.857 25.714t25.714 10.857h804.571q14.857 0 25.714-10.857t10.857-25.714z" horiz-adv-x="878" />
<glyph unicode="&#xf0ca;" d="M219.429 155.429q0-45.714-32-77.714t-77.714-32-77.714 32-32 77.714 32 77.714 77.714 32 77.714-32 32-77.714zM219.429 448q0-45.714-32-77.714t-77.714-32-77.714 32-32 77.714 32 77.714 77.714 32 77.714-32 32-77.714zM1024 210.286v-109.714q0-7.429-5.429-12.857t-12.857-5.429h-694.857q-7.429 0-12.857 5.429t-5.429 12.857v109.714q0 7.429 5.429 12.857t12.857 5.429h694.857q7.429 0 12.857-5.429t5.429-12.857zM219.429 740.571q0-45.714-32-77.714t-77.714-32-77.714 32-32 77.714 32 77.714 77.714 32 77.714-32 32-77.714zM1024 502.857v-109.714q0-7.429-5.429-12.857t-12.857-5.429h-694.857q-7.429 0-12.857 5.429t-5.429 12.857v109.714q0 7.429 5.429 12.857t12.857 5.429h694.857q7.429 0 12.857-5.429t5.429-12.857zM1024 795.429v-109.714q0-7.429-5.429-12.857t-12.857-5.429h-694.857q-7.429 0-12.857 5.429t-5.429 12.857v109.714q0 7.429 5.429 12.857t12.857 5.429h694.857q7.429 0 12.857-5.429t5.429-12.857z" />
<glyph unicode="&#xf0d5;" d="M500.571 122.857q0 12-2.571 23.143t-5.429 20.571-10 19.714-12 17.429-15.143 16.857-15.714 14.571-18.286 14.571-17.714 13.143-18.857 13.143-17.429 12q-9.714 1.143-28.571 1.143-30.857 0-60.571-4t-61.714-14.286-56-26.286-39.429-42.857-15.429-61.143q0-38.857 20.286-69.429t53.143-48 68.857-26 72.571-8.571q33.714 0 64.286 7.143t57.429 22.286 42.571 42 15.714 62.857zM432 615.429q0 34.286-9.429 72.857t-26.857 74.571-48 59.429-68.286 23.429q-53.143 0-82.286-39.429t-29.143-94.286q0-26.857 6.571-56.571t20.286-59.429 32-53.429 44.571-38.571 55.429-14.857q55.429 0 80.286 34.571t24.857 91.714zM357.143 886.857h249.714l-77.143-45.143h-77.143q40.571-25.714 62.857-72t22.286-96.571q0-42.286-13.143-75.143t-32-52.857-37.714-36.857-32-34.857-13.143-38.571q0-14.857 9.429-29.143t24.571-27.429 33.429-27.429 36.571-31.714 33.429-37.714 24.571-48.571 9.429-60.857q0-91.429-80-161.143-86.857-74.857-240-74.857-33.714 0-68.286 5.714t-69.714 19.143-62 33.143-44 50.857-17.143 69.429q0 34.857 21.143 77.143 18.286 36.571 54.857 63.143t82.857 40.571 88.571 20.571 85.714 7.714q-36.571 47.429-36.571 85.143 0 6.857 1.143 13.429t2.857 11.143 4.571 12.286 4 12.286q-22.857-2.857-40-2.857-85.143 0-146 56t-60.857 140.571q0 80 54.286 143.143t133.714 80.857q53.714 11.429 106.857 11.429zM950.857 740.571v-73.143h-146.286v-146.286h-73.143v146.286h-146.286v73.143h146.286v146.286h73.143v-146.286h146.286z" horiz-adv-x="951" />
<glyph unicode="&#xf0e0;" d="M1024 554.286v-453.714q0-37.714-26.857-64.571t-64.571-26.857h-841.143q-37.714 0-64.571 26.857t-26.857 64.571v453.714q25.143-28 57.714-49.714 206.857-140.571 284-197.143 32.571-24 52.857-37.429t54-27.429 62.857-14h1.143q29.143 0 62.857 14t54 27.429 52.857 37.429q97.143 70.286 284.571 197.143 32.571 22.286 57.143 49.714zM1024 722.286q0-45.143-28-86.286t-69.714-70.286q-214.857-149.143-267.429-185.714-5.714-4-24.286-17.429t-30.857-21.714-29.714-18.571-32.857-15.429-28.571-5.143h-1.143q-13.143 0-28.571 5.143t-32.857 15.429-29.714 18.571-30.857 21.714-24.286 17.429q-52 36.571-149.714 104.286t-117.143 81.429q-35.429 24-66.857 66t-31.429 78q0 44.571 23.714 74.286t67.714 29.714h841.143q37.143 0 64.286-26.857t27.143-64.571z" />
<glyph unicode="&#xf0f6;" d="M585.143 283.429v-36.571q0-8-5.143-13.143t-13.143-5.143h-402.286q-8 0-13.143 5.143t-5.143 13.143v36.571q0 8 5.143 13.143t13.143 5.143h402.286q8 0 13.143-5.143t5.143-13.143zM585.143 429.714v-36.571q0-8-5.143-13.143t-13.143-5.143h-402.286q-8 0-13.143 5.143t-5.143 13.143v36.571q0 8 5.143 13.143t13.143 5.143h402.286q8 0 13.143-5.143t5.143-13.143zM73.143 82.286h585.143v438.857h-237.714q-22.857 0-38.857 16t-16 38.857v237.714h-292.571v-731.429zM438.857 594.286h214.857q-5.714 16.571-12.571 23.429l-178.857 178.857q-6.857 6.857-23.429 12.571v-214.857zM731.429 576v-512q0-22.857-16-38.857t-38.857-16h-621.714q-22.857 0-38.857 16t-16 38.857v768q0 22.857 16 38.857t38.857 16h365.714q22.857 0 50.286-11.429t43.429-27.429l178.286-178.286q16-16 27.429-43.429t11.429-50.286z" horiz-adv-x="731" />
<glyph unicode="&#xf104;" d="M358.286 649.143q0-7.429-5.714-13.143l-224.571-224.571 224.571-224.571q5.714-5.714 5.714-13.143t-5.714-13.143l-28.571-28.571q-5.714-5.714-13.143-5.714t-13.143 5.714l-266.286 266.286q-5.714 5.714-5.714 13.143t5.714 13.143l266.286 266.286q5.714 5.714 13.143 5.714t13.143-5.714l28.571-28.571q5.714-5.714 5.714-13.143z" horiz-adv-x="366" />
<glyph unicode="&#xf105;" d="M340 411.429q0-7.429-5.714-13.143l-266.286-266.286q-5.714-5.714-13.143-5.714t-13.143 5.714l-28.571 28.571q-5.714 5.714-5.714 13.143t5.714 13.143l224.571 224.571-224.571 224.571q-5.714 5.714-5.714 13.143t5.714 13.143l28.571 28.571q5.714 5.714 13.143 5.714t13.143-5.714l266.286-266.286q5.714-5.714 5.714-13.143z" horiz-adv-x="366" />
<glyph unicode="&#xf106;" d="M614.286 283.429q0-7.429-5.714-13.143l-28.571-28.571q-5.714-5.714-13.143-5.714t-13.143 5.714l-224.571 224.571-224.571-224.571q-5.714-5.714-13.143-5.714t-13.143 5.714l-28.571 28.571q-5.714 5.714-5.714 13.143t5.714 13.143l266.286 266.286q5.714 5.714 13.143 5.714t13.143-5.714l266.286-266.286q5.714-5.714 5.714-13.143z" horiz-adv-x="658" />
<glyph unicode="&#xf107;" d="M614.286 539.429q0-7.429-5.714-13.143l-266.286-266.286q-5.714-5.714-13.143-5.714t-13.143 5.714l-266.286 266.286q-5.714 5.714-5.714 13.143t5.714 13.143l28.571 28.571q5.714 5.714 13.143 5.714t13.143-5.714l224.571-224.571 224.571 224.571q5.714 5.714 13.143 5.714t13.143-5.714l28.571-28.571q5.714-5.714 5.714-13.143z" horiz-adv-x="658" />
<glyph unicode="&#xf108;" d="M1024 393.143v475.429q0 7.429-5.429 12.857t-12.857 5.429h-914.286q-7.429 0-12.857-5.429t-5.429-12.857v-475.429q0-7.429 5.429-12.857t12.857-5.429h914.286q7.429 0 12.857 5.429t5.429 12.857zM1097.143 868.571v-621.714q0-37.714-26.857-64.571t-64.571-26.857h-310.857q0-21.143 9.143-44.286t18.286-40.571 9.143-24.857q0-14.857-10.857-25.714t-25.714-10.857h-292.571q-14.857 0-25.714 10.857t-10.857 25.714q0 8 9.143 25.143t18.286 40 9.143 44.571h-310.857q-37.714 0-64.571 26.857t-26.857 64.571v621.714q0 37.714 26.857 64.571t64.571 26.857h914.286q37.714 0 64.571-26.857t26.857-64.571z" horiz-adv-x="1097" />
<glyph unicode="&#xf109;" d="M237.714 228.571q-37.714 0-64.571 26.857t-26.857 64.571v402.286q0 37.714 26.857 64.571t64.571 26.857h621.714q37.714 0 64.571-26.857t26.857-64.571v-402.286q0-37.714-26.857-64.571t-64.571-26.857h-621.714zM219.429 722.286v-402.286q0-7.429 5.429-12.857t12.857-5.429h621.714q7.429 0 12.857 5.429t5.429 12.857v402.286q0 7.429-5.429 12.857t-12.857 5.429h-621.714q-7.429 0-12.857-5.429t-5.429-12.857zM1005.714 192h91.429v-54.857q0-22.857-26.857-38.857t-64.571-16h-914.286q-37.714 0-64.571 16t-26.857 38.857v54.857h1005.714zM594.286 137.143q9.143 0 9.143 9.143t-9.143 9.143h-91.429q-9.143 0-9.143-9.143t9.143-9.143h91.429z" horiz-adv-x="1097" />
<glyph unicode="&#xf10a;" d="M365.714 155.429q0 14.857-10.857 25.714t-25.714 10.857-25.714-10.857-10.857-25.714 10.857-25.714 25.714-10.857 25.714 10.857 10.857 25.714zM585.143 246.857v548.571q0 7.429-5.429 12.857t-12.857 5.429h-475.429q-7.429 0-12.857-5.429t-5.429-12.857v-548.571q0-7.429 5.429-12.857t12.857-5.429h475.429q7.429 0 12.857 5.429t5.429 12.857zM658.286 795.429v-621.714q0-37.714-26.857-64.571t-64.571-26.857h-475.429q-37.714 0-64.571 26.857t-26.857 64.571v621.714q0 37.714 26.857 64.571t64.571 26.857h475.429q37.714 0 64.571-26.857t26.857-64.571z" horiz-adv-x="658" />
<glyph unicode="&#xf10b;" d="M265.143 155.429q0 18.857-13.429 32.286t-32.286 13.429-32.286-13.429-13.429-32.286 13.429-32.286 32.286-13.429 32.286 13.429 13.429 32.286zM384 246.857v402.286q0 7.429-5.429 12.857t-12.857 5.429h-292.571q-7.429 0-12.857-5.429t-5.429-12.857v-402.286q0-7.429 5.429-12.857t12.857-5.429h292.571q7.429 0 12.857 5.429t5.429 12.857zM274.286 731.429q0 9.143-9.143 9.143h-91.429q-9.143 0-9.143-9.143t9.143-9.143h91.429q9.143 0 9.143 9.143zM438.857 740.571v-585.143q0-29.714-21.714-51.429t-51.429-21.714h-292.571q-29.714 0-51.429 21.714t-21.714 51.429v585.143q0 29.714 21.714 51.429t51.429 21.714h292.571q29.714 0 51.429-21.714t21.714-51.429z" horiz-adv-x="439" />
<glyph unicode="&#xf10d;" d="M438.857 411.429v-219.429q0-45.714-32-77.714t-77.714-32h-219.429q-45.714 0-77.714 32t-32 77.714v402.286q0 59.429 23.143 113.429t62.571 93.429 93.429 62.571 113.429 23.143h36.571q14.857 0 25.714-10.857t10.857-25.714v-73.143q0-14.857-10.857-25.714t-25.714-10.857h-36.571q-60.571 0-103.429-42.857t-42.857-103.429v-18.286q0-22.857 16-38.857t38.857-16h128q45.714 0 77.714-32t32-77.714zM950.857 411.429v-219.429q0-45.714-32-77.714t-77.714-32h-219.429q-45.714 0-77.714 32t-32 77.714v402.286q0 59.429 23.143 113.429t62.571 93.429 93.429 62.571 113.429 23.143h36.571q14.857 0 25.714-10.857t10.857-25.714v-73.143q0-14.857-10.857-25.714t-25.714-10.857h-36.571q-60.571 0-103.429-42.857t-42.857-103.429v-18.286q0-22.857 16-38.857t38.857-16h128q45.714 0 77.714-32t32-77.714z" horiz-adv-x="951" />
</font>
</defs>
</svg>
