<?xml version="1.0" encoding="UTF-8" standalone="no"?>
<!DOCTYPE svg PUBLIC "-//W3C//DTD SVG 1.1//EN" "http://www.w3.org/Graphics/SVG/1.1/DTD/svg11.dtd">
<svg width="100%" height="100%" viewBox="0 0 48 48" version="1.1" xmlns="http://www.w3.org/2000/svg" xmlns:xlink="http://www.w3.org/1999/xlink" xml:space="preserve" style="fill-rule:evenodd;clip-rule:evenodd;stroke-linejoin:round;stroke-miterlimit:1.41421;">
    <g transform="matrix(1,0,0,1,-3177,-1059)">
        <g transform="matrix(1,0,0,1,2920.38,32)">
            <g id="icon_accel" transform="matrix(1.9685,0,0,1.9685,257.263,1027.43)">
                <path d="M12,0C5.383,0 0,5.383 0,12C0,18.617 5.383,24 12,24C18.617,24 24,18.617 24,12C24,5.383 18.617,0 12,0ZM17.334,8.275L20.039,6.732C20.294,6.626 20.587,6.748 20.692,7.003C20.797,7.258 20.676,7.551 20.421,7.656L17.717,9.199C17.47,9.303 17.171,9.188 17.064,8.928C16.958,8.673 17.079,8.38 17.334,8.275ZM14.917,5.842L16.311,3.481C16.416,3.226 16.709,3.104 16.964,3.21C17.219,3.315 17.34,3.609 17.235,3.863L15.841,6.224C15.735,6.482 15.438,6.6 15.188,6.494C14.932,6.39 14.811,6.097 14.917,5.842ZM11.5,2.621C11.5,2.345 11.724,2.121 12,2.121C12.276,2.121 12.5,2.345 12.5,2.621L12.5,5.054C12.5,5.33 12.276,5.554 12,5.554C11.724,5.554 11.5,5.331 11.5,5.055L11.5,2.621ZM7.132,3.308C7.386,3.201 7.68,3.324 7.785,3.578L8.588,5.002C8.694,5.257 8.572,5.55 8.317,5.655C8.069,5.76 7.771,5.644 7.664,5.385L6.861,3.961C6.756,3.706 6.877,3.413 7.132,3.308ZM2.035,11.857C2.035,11.581 2.259,11.357 2.535,11.357L3.441,11.362C3.717,11.362 3.941,11.586 3.941,11.862C3.941,12.138 3.717,12.362 3.441,12.362L2.535,12.357C2.259,12.357 2.035,12.133 2.035,11.857ZM5.516,8.067C5.409,8.325 5.112,8.443 4.862,8.338L3.508,7.61C3.253,7.505 3.132,7.212 3.238,6.957C3.343,6.702 3.637,6.579 3.891,6.686L5.245,7.414C5.501,7.519 5.622,7.812 5.516,8.067ZM13.717,10.99C13.892,11.288 14,11.631 14,12C14,13.102 13.103,14 12,14C10.897,14 10,13.102 10,12C10,10.898 10.897,10 12,10C12.37,10 12.712,10.107 13.01,10.283L17.656,5.636C17.851,5.441 18.168,5.441 18.363,5.636C18.558,5.831 18.558,6.148 18.363,6.343L13.717,10.99ZM21.045,17.049C20.938,17.307 20.641,17.425 20.392,17.32L15.415,14.451C15.16,14.346 15.038,14.053 15.144,13.798C15.249,13.542 15.542,13.421 15.797,13.527L20.774,16.396C21.03,16.501 21.151,16.794 21.045,17.049ZM21.555,12.451L17.792,12.441C17.516,12.441 17.292,12.217 17.292,11.941C17.292,11.665 17.516,11.441 17.792,11.441L21.555,11.451C21.831,11.451 22.055,11.675 22.055,11.951C22.055,12.227 21.831,12.451 21.555,12.451Z" style="fill:rgb(21,30,36);fill-rule:nonzero;"/>
            </g>
        </g>
    </g>
</svg>
