<?xml version="1.0" encoding="UTF-8" standalone="no"?>
<!DOCTYPE svg PUBLIC "-//W3C//DTD SVG 1.1//EN" "http://www.w3.org/Graphics/SVG/1.1/DTD/svg11.dtd">
<svg width="100%" height="100%" viewBox="0 0 48 49" version="1.1" xmlns="http://www.w3.org/2000/svg" xmlns:xlink="http://www.w3.org/1999/xlink" xml:space="preserve" style="fill-rule:evenodd;clip-rule:evenodd;stroke-linejoin:round;stroke-miterlimit:1.41421;">
    <g transform="matrix(1,0,0,1,-3177,-1142)">
        <g transform="matrix(1,0,0,1,2920.38,32)">
            <g id="icon_speed" transform="matrix(1.9685,0,0,1.9685,257.263,1110.89)">
                <path d="M12,0C5.383,0 0,5.383 0,12C0,18.617 5.383,24 12,24C18.617,24 24,18.617 24,12C24,5.383 18.617,0 12,0ZM18.737,8.668L20.585,7.903C20.84,7.797 21.133,7.919 21.238,8.174C21.343,8.429 21.222,8.722 20.967,8.827L19.12,9.592C18.873,9.696 18.574,9.581 18.467,9.321C18.361,9.066 18.482,8.773 18.737,8.668ZM15.038,4.879L15.804,3.032C15.909,2.777 16.202,2.655 16.457,2.761C16.712,2.866 16.833,3.16 16.728,3.414L15.962,5.261C15.856,5.519 15.559,5.637 15.309,5.531C15.053,5.427 14.932,5.134 15.038,4.879ZM12,2.685C12,2.409 12.224,2.185 12.5,2.185C12.776,2.185 13,2.409 13,2.685L13,4.685C13,4.961 12.776,5.185 12.5,5.185C12.224,5.185 12,4.962 12,4.686L12,2.685ZM8.174,2.761C8.428,2.654 8.722,2.777 8.827,3.031L9.592,4.879C9.698,5.134 9.576,5.427 9.321,5.532C9.073,5.637 8.775,5.521 8.668,5.262L7.903,3.414C7.798,3.159 7.919,2.866 8.174,2.761ZM1.944,11.5C1.944,11.224 2.168,11 2.444,11L4.444,11C4.72,11 4.944,11.224 4.944,11.5C4.944,11.776 4.72,12 4.444,12L2.444,12C2.168,12 1.944,11.776 1.944,11.5ZM5.262,15.332L3.413,16.097C3.163,16.202 2.867,16.084 2.76,15.826C2.655,15.57 2.776,15.278 3.031,15.173L4.88,14.408C5.134,14.301 5.427,14.424 5.533,14.679C5.638,14.935 5.517,15.227 5.262,15.332ZM5.533,9.321C5.426,9.579 5.129,9.697 4.879,9.592L3.032,8.826C2.777,8.721 2.656,8.428 2.762,8.173C2.867,7.918 3.161,7.795 3.415,7.902L5.262,8.668C5.518,8.773 5.639,9.066 5.533,9.321ZM6.343,7.05L4.93,5.636C4.735,5.441 4.735,5.124 4.93,4.929C5.125,4.734 5.442,4.734 5.637,4.929L7.05,6.343C7.245,6.538 7.245,6.855 7.05,7.05C6.855,7.245 6.538,7.245 6.343,7.05ZM17,19.5C17,19.776 16.776,20 16.5,20L7.5,20C7.224,20 7,19.776 7,19.5L7,16.5C7,16.224 7.224,16 7.5,16L16.5,16C16.776,16 17,16.224 17,16.5L17,19.5ZM13.717,10.99C13.892,11.288 14,11.631 14,12C14,13.102 13.103,14 12,14C10.897,14 10,13.102 10,12C10,10.898 10.897,10 12,10C12.37,10 12.712,10.107 13.01,10.283L17.656,5.636C17.851,5.441 18.168,5.441 18.363,5.636C18.558,5.831 18.558,6.148 18.363,6.343L13.717,10.99ZM21.238,15.827C21.131,16.085 20.834,16.203 20.585,16.098L18.738,15.332C18.483,15.227 18.361,14.934 18.467,14.679C18.572,14.423 18.865,14.302 19.12,14.408L20.967,15.174C21.223,15.279 21.344,15.572 21.238,15.827ZM21.499,12L19.499,11.999C19.223,11.999 18.999,11.775 18.999,11.499C18.999,11.223 19.223,10.999 19.499,10.999L21.499,11C21.775,11 21.999,11.224 21.999,11.5C21.999,11.776 21.775,12 21.499,12Z" style="fill:rgb(21,30,36);fill-rule:nonzero;"/>
            </g>
        </g>
    </g>
</svg>
