<?xml version="1.0" encoding="UTF-8" standalone="no"?>
<!DOCTYPE svg PUBLIC "-//W3C//DTD SVG 1.1//EN" "http://www.w3.org/Graphics/SVG/1.1/DTD/svg11.dtd">
<svg width="100%" height="100%" viewBox="0 0 48 58" version="1.1" xmlns="http://www.w3.org/2000/svg" xmlns:xlink="http://www.w3.org/1999/xlink" xml:space="preserve" style="fill-rule:evenodd;clip-rule:evenodd;stroke-linejoin:round;stroke-miterlimit:1.41421;">
    <g transform="matrix(1,0,0,1,-3177,-1219)">
        <g transform="matrix(1,0,0,1,2920.38,32)">
            <g id="icon_co2" transform="matrix(2.3622,0,0,2.3622,252.539,1187.57)">
                <path d="M12,12C8.691,12 6,14.691 6,18C6,21.31 8.691,24 12,24C15.309,24 18,21.31 18,18C18,14.691 15.309,12 12,12ZM9,19C8.448,19 8,18.551 8,18C8,17.449 8.448,17 9,17C9.552,17 10,17.449 10,18C10,18.551 9.552,19 9,19ZM12,22C11.448,22 11,21.551 11,21C11,20.449 11.448,20 12,20C12.552,20 13,20.449 13,21C13,21.551 12.552,22 12,22ZM12,19C11.448,19 11,18.551 11,18C11,17.449 11.448,17 12,17C12.552,17 13,17.449 13,18C13,18.551 12.552,19 12,19ZM12,16C11.448,16 11,15.551 11,15C11,14.449 11.448,14 12,14C12.552,14 13,14.449 13,15C13,15.551 12.552,16 12,16ZM15,19C14.448,19 14,18.551 14,18C14,17.449 14.448,17 15,17C15.552,17 16,17.449 16,18C16,18.551 15.552,19 15,19Z" style="fill:rgb(21,30,36);fill-rule:nonzero;"/>
                <path d="M12,0C6.486,0 2,4.486 2,10L2,10.5C2,11.712 2.555,13.434 3.262,14.416L5.087,16.953C5.595,13.59 8.497,11 12,11C15.53,11 18.451,13.63 18.925,17.031L20.759,14.425C21.455,13.434 22,11.71 22,10.5L22,10C22,4.486 17.514,0 12,0ZM8,10.5C6.346,10.5 5,9.155 5,7.5C5,5.846 6.346,4.5 8,4.5C9.654,4.5 11,5.846 11,7.5C11,9.155 9.654,10.5 8,10.5ZM16,10.5C14.346,10.5 13,9.155 13,7.5C13,5.846 14.346,4.5 16,4.5C17.654,4.5 19,5.846 19,7.5C19,9.155 17.654,10.5 16,10.5Z" style="fill:rgb(21,30,36);fill-rule:nonzero;"/>
            </g>
        </g>
    </g>
</svg>
